<svg width="150" height="152" viewBox="0 0 150 152" fill="none" xmlns="http://www.w3.org/2000/svg">
<path d="M63.6241 0.0134402C43.2863 0.371726 11.8171 8.06944 2.7635 27.8512C-0.399796 34.7617 -0.187092 44.9186 0.24377 65.2269C0.369211 71.1983 0.576461 79.9003 2.04357 90.6977C5.08688 113.129 7.16483 128.394 15.0076 137.286C34.6691 159.565 105.69 158.919 136.014 118.812C152.556 96.9352 155.103 65.8077 139.974 40.0872C123.323 11.7717 90.8557 -0.464274 63.6241 0.0134402Z" fill="#AEC2E0"/>
<path d="M76.1138 11.2511L61.3336 133.546C61.11 135.381 62.3808 137.026 64.1588 137.199L125.728 143.925C129.503 144.159 131.564 142.243 131.799 140.294L147.321 10.274C147.55 8.33601 145.701 6.57715 141.916 6.57715L79.7843 7.88001C77.9791 7.91258 76.332 9.42715 76.1138 11.2511Z" fill="url(#paint0_linear_129_4374)"/>
<path d="M73.3376 11.0392L58.4756 133.948C58.252 135.788 59.5282 137.444 61.3117 137.617L125.145 143.942C127.146 144.142 128.979 142.698 129.213 140.739L144.823 10.0458C145.057 8.09696 143.585 6.52811 141.561 6.56611L77.0245 7.65182C75.2138 7.68439 73.5613 9.20982 73.3376 11.0392Z" fill="url(#paint1_linear_129_4374)"/>
<path d="M74.554 17.8197L60.7773 131.782C60.57 133.503 61.7644 135.044 63.4333 135.207L123.465 141.016C125.325 141.195 127.032 139.849 127.25 138.025L141.676 17.2931C141.894 15.4799 140.53 14.0088 138.649 14.0305L78.0008 14.6711C76.3047 14.6928 74.7612 16.1097 74.554 17.8197Z" fill="url(#paint2_linear_129_4374)"/>
<path d="M106.743 10.9577C106.667 11.6146 107.136 12.1357 107.796 12.1248C108.456 12.114 109.061 11.5766 109.137 10.9251C109.214 10.2683 108.745 9.74712 108.079 9.75798C107.419 9.76341 106.819 10.3008 106.743 10.9577Z" fill="url(#paint3_linear_129_4374)"/>
<path d="M84.9326 94.3192C97.2203 71.7038 115.584 64.9344 121.109 41.6241C124.097 29.0244 122.063 16.9675 118.633 6.95722L141.561 6.57179C143.584 6.53922 145.051 8.10265 144.822 10.0515L129.213 140.744C128.979 142.704 127.146 144.143 125.145 143.947L74.9682 138.975C74.5973 118.71 79.4513 104.4 84.9326 94.3192Z" fill="white" fill-opacity="0.2"/>
<path d="M130.201 25.1533L130.501 26.7656L124.327 26.7819L70.7364 26.9068C69.3565 26.9122 68.0912 28.0468 67.9003 29.4419L55.1054 114.546C54.9145 115.952 57.1179 118.107 58.4868 118.21L82.2606 120.028V120.001L117.826 122.716L117.913 122.754C119.429 122.868 120.825 121.771 121.022 120.284V120.289L133.004 29.4256C133.2 27.949 131.728 25.1479 130.201 25.1533Z" fill="url(#paint4_linear_129_4374)"/>
<path d="M119.811 118.509C119.615 119.997 118.224 121.109 116.702 120.995L57.2159 116.446C55.8469 116.343 54.8925 115.116 55.0834 113.705L66.7112 27.7C66.9021 26.3048 68.1674 25.1703 69.5473 25.1648L129.372 25.002C130.899 24.9965 131.979 26.1908 131.788 27.662L119.811 118.509Z" fill="white"/>
<path opacity="0.4" d="M131.788 27.6615L119.811 118.509C119.614 119.996 118.131 121.104 116.615 120.984L80.8858 118.254C79.1896 116.522 77.788 114.448 76.7953 111.956C76.3045 110.735 75.9445 109.416 75.71 108.032C75.0446 104.194 75.301 99.8344 76.2718 95.5567C77.0135 92.2615 78.1806 89.0098 79.675 86.0729C80.8694 83.7278 82.2711 81.5835 83.8418 79.7758C84.9708 78.4784 86.1925 77.2189 87.4796 75.9812C89.034 74.4884 90.6811 73.0335 92.3882 71.5895C96.3587 68.2238 100.607 64.9341 104.54 61.4598C113.615 53.4418 120.983 44.4901 119.211 31.7112C119.156 31.3095 118.6 28.2261 117.896 25.0287L129.29 24.9961C130.811 24.9961 131.984 26.1904 131.788 27.6615Z" fill="white"/>
<path d="M110.13 145.814C110.146 145.814 110.163 145.819 110.179 145.819C112.813 146.237 116.108 145.944 118.24 144.202C119.364 143.284 120.122 142.074 120.356 140.635C120.493 139.783 120.569 138.887 120.438 138.029C120.296 137.134 119.947 136.265 119.5 135.483C119.249 135.044 118.965 134.62 118.66 134.213C117.793 133.051 115.742 131.423 116.691 129.783C117.264 128.79 118.589 128.177 119.467 127.482C121.338 125.994 122.68 123.845 122.701 121.396C122.718 119.469 121.501 117.564 120.133 116.266C114.564 110.995 118.665 101.935 110.779 102.646C102.887 103.357 101.18 111.196 104.131 118.514C105.118 120.962 106.323 123.47 106.994 126.027C107.523 128.041 106.776 129.436 105.129 130.625C104.24 131.265 102.947 131.7 102.173 132.46C100.449 134.148 99.0694 136.509 99.4839 138.985C99.8929 141.439 101.993 143.241 104.207 144.175C106.127 144.978 108.085 145.488 110.13 145.814Z" fill="url(#paint5_linear_129_4374)"/>
<g opacity="0.8">
<path d="M111.062 143.713C111.079 143.713 111.101 143.708 111.117 143.703C111.199 143.67 111.242 143.578 111.215 143.496C111.182 143.404 107.916 134.322 110.773 127.042C113.68 119.643 110.43 111.723 110.397 111.641C110.364 111.56 110.266 111.522 110.184 111.555C110.103 111.587 110.064 111.685 110.097 111.766C110.13 111.842 113.331 119.649 110.473 126.923C107.566 134.317 110.877 143.518 110.91 143.605C110.932 143.67 110.992 143.713 111.062 143.713Z" fill="white"/>
</g>
<path d="M108.467 132.172C109.127 131.13 109.885 130.153 110.67 129.268C113.337 126.277 115.208 123.101 116.402 119.269C117.346 116.25 117.324 112.798 117.913 109.682C118.338 107.423 119.107 105.236 119.904 103.086C121.605 98.5097 124.152 93.1951 128.439 90.4483C130.424 89.178 133.364 89.0477 135.545 89.9597C138.376 91.1431 140.885 93.4448 141.065 96.6423C141.316 101.045 137.454 105.974 140.645 110.024C145.537 116.218 143.252 123.107 136.527 126.472C134.335 127.569 131.766 128.589 129.939 130.272C128.101 131.966 129.197 134.849 129.399 136.993C129.59 139.001 129.802 141.341 128.515 143.057C126.345 145.955 121.098 147.22 117.689 147.508C114.39 147.785 110.643 147.421 108.33 144.794C104.856 140.842 105.99 136.07 108.467 132.172Z" fill="url(#paint6_linear_129_4374)"/>
<g opacity="0.8">
<path d="M113.833 144.789C113.899 144.789 113.959 144.751 113.986 144.686C114.095 144.403 124.758 116.386 130.844 105.095C130.888 105.019 130.855 104.921 130.779 104.878C130.703 104.834 130.604 104.867 130.561 104.943C124.463 116.251 113.79 144.289 113.686 144.572C113.653 144.653 113.697 144.751 113.779 144.778C113.795 144.783 113.817 144.789 113.833 144.789Z" fill="white"/>
</g>
<path d="M118.448 148.751C117.738 148.654 117.029 148.534 116.326 148.42C114.357 148.105 111.919 147.497 111.297 145.31C111.123 144.685 111.423 143.573 111.499 142.927C111.576 142.27 111.668 141.607 111.821 140.961C112.034 140.071 112.377 139.23 112.819 138.426C113.588 137.037 114.461 135.989 116.097 135.669C117.286 135.441 118.606 135.386 119.816 135.424C126.41 135.641 127.223 133.275 130.844 128.215C134.466 123.156 158.305 131.337 143.923 140.321C143.923 140.321 141.763 141.721 133.871 140.804C132.426 140.636 130.604 140.527 129.377 141.455C127.217 143.095 129.388 146.569 127.212 147.932C125.941 148.724 123.901 148.958 122.44 149.017C121.098 149.066 119.767 148.936 118.448 148.751Z" fill="url(#paint7_linear_129_4374)"/>
<g opacity="0.8">
<path d="M114.046 146.043C114.095 146.043 114.144 146.021 114.177 145.978C114.221 145.923 118.393 140.272 124.316 138.937C126.634 138.416 128.636 137.248 130.572 136.119C133.839 134.214 136.92 132.417 141.474 133.34C141.561 133.356 141.649 133.302 141.665 133.215C141.681 133.128 141.627 133.041 141.54 133.025C136.866 132.075 133.582 133.991 130.408 135.842C128.494 136.961 126.514 138.112 124.245 138.622C118.202 139.984 113.959 145.728 113.915 145.788C113.861 145.858 113.877 145.961 113.954 146.016C113.981 146.032 114.014 146.043 114.046 146.043Z" fill="white"/>
</g>
<path d="M47.5678 25.9947C47.5678 35.7064 39.7087 44.099 29.9788 44.7504C20.2163 45.4018 12.2808 38.0081 12.2808 28.2367C12.2808 18.4653 20.2163 10.0673 29.9788 9.47554C39.7087 8.88382 47.5678 16.283 47.5678 25.9947Z" fill="url(#paint8_linear_129_4374)"/>
<path d="M49.6567 26.6133C49.6567 36.325 41.7975 44.7175 32.0677 45.369C22.3051 46.0204 14.3696 38.6267 14.3696 28.8553C14.3696 19.0838 22.3106 10.6804 32.0677 10.0941C41.7975 9.50783 49.6567 16.9015 49.6567 26.6133Z" fill="url(#paint9_linear_129_4374)"/>
<path d="M31.446 37.2756C30.6824 37.3245 29.968 36.9716 29.5753 36.3365L22.9214 25.7073C22.2997 24.7085 22.6324 23.3459 23.6686 22.6619C24.7049 21.9779 26.052 22.2276 26.6738 23.2211L31.2878 30.5985L37.3744 18.2593C37.9198 17.1519 39.2342 16.6416 40.3032 17.1248C41.3722 17.6025 41.803 18.8891 41.2576 19.9965L33.393 35.9565C33.0331 36.6893 32.3186 37.1888 31.5223 37.2702C31.5005 37.2702 31.4732 37.2756 31.446 37.2756Z" fill="white"/>
<path d="M118.044 42.3997C118.529 42.4051 119.009 42.0414 119.064 41.5746L120.492 30.1637C120.552 29.6968 120.203 29.3223 119.713 29.3223H110.092C109.617 29.3223 109.181 29.6914 109.126 30.1528C109.072 30.6088 109.377 30.9834 109.852 30.9834L118.545 30.9997L117.231 41.5474C117.176 42.0088 117.558 42.3888 118.044 42.3997Z" fill="url(#paint10_linear_129_4374)"/>
<path d="M104.414 75.53L113.871 76.0837C114.351 76.1108 114.788 75.7634 114.848 75.3074L116.255 64.0594C116.315 63.6034 115.933 63.2125 115.448 63.1963C114.968 63.1745 114.493 63.5274 114.433 63.9888L113.135 74.39L104.578 73.9068C104.109 73.8797 103.7 74.2217 103.645 74.6723C103.596 75.1174 103.945 75.5028 104.414 75.53Z" fill="url(#paint11_linear_129_4374)"/>
<path d="M74.3848 41.689C74.8211 41.6944 75.1756 41.347 75.2247 40.9127L76.3809 30.9187L84.4309 30.935C84.8782 30.935 85.3036 30.5767 85.3527 30.1316C85.4072 29.6864 85.1018 29.3281 84.6545 29.3281H75.8464C75.4101 29.3281 75.0174 29.681 74.9629 30.1207L73.7194 40.891C73.6812 41.3253 73.9539 41.6836 74.3848 41.689Z" fill="url(#paint12_linear_129_4374)"/>
<path d="M70.7417 73.5653L79.408 74.0702C79.8498 74.0973 80.2479 73.7608 80.297 73.3265C80.3461 72.8922 79.997 72.5176 79.5553 72.4905L71.6252 72.0453L72.7651 62.1816C72.8142 61.7473 72.5415 61.3836 72.1106 61.3619C71.6798 61.3456 71.3253 61.6768 71.2762 62.111L70.049 72.7348C70 73.169 70.3108 73.5382 70.7417 73.5653Z" fill="url(#paint13_linear_129_4374)"/>
<path d="M106.454 83.4886C106.394 83.9338 105.979 84.2649 105.527 84.2432L74.0518 83.0978C73.6373 83.0815 73.3428 82.7395 73.4028 82.3215L74.0191 77.7561C74.0736 77.3326 74.4554 77.0449 74.8699 77.0612L106.372 77.9298C106.825 77.9406 107.146 78.2609 107.092 78.7061L106.454 83.4886Z" fill="#F4F7FA"/>
<path d="M105.238 92.7652C105.178 93.2104 104.763 93.5904 104.311 93.5632L72.8578 92.0161C72.4433 91.9944 72.1542 91.5981 72.2088 91.1746L72.8305 86.5224C72.885 86.0989 73.2723 85.7352 73.6868 85.7515L105.162 87.0164C105.614 87.0326 105.936 87.4452 105.876 87.8849L105.238 92.7652Z" fill="#F4F7FA"/>
<path d="M107.097 78.6839C107.021 78.6622 106.945 78.6459 106.857 78.6459L75.35 77.7773C74.9355 77.7665 74.5537 78.0542 74.4992 78.4722L73.8774 83.0376C73.8774 83.0485 73.8774 83.0593 73.872 83.0702C73.5502 82.9779 73.3484 82.6793 73.3975 82.3156L74.0192 77.7502C74.0738 77.3268 74.4555 77.0391 74.87 77.0553L106.377 77.9239C106.819 77.9402 107.141 78.2496 107.097 78.6839Z" fill="#AABBCC"/>
<path d="M105.881 87.7876C105.805 87.7551 105.723 87.7388 105.636 87.7388L74.1666 86.4739C73.7521 86.4577 73.3703 86.8214 73.3103 87.2448L72.6831 91.8971C72.6776 91.9297 72.6776 91.9568 72.6776 91.9839C72.3558 91.8808 72.154 91.5388 72.2031 91.1805L72.8303 86.5282C72.8849 86.1048 73.2721 85.7411 73.6866 85.7574L105.156 87.0222C105.576 87.0331 105.881 87.3859 105.881 87.7876Z" fill="#AABBCC"/>
<path d="M96.8712 100.284C96.9639 99.5838 96.4676 98.9378 95.7586 98.8998L79.4786 97.9715C78.8023 97.9335 78.1805 98.4981 78.0878 99.1821L77.417 104.225C77.3242 104.909 77.7933 105.561 78.4696 105.61L94.7442 106.717C95.4532 106.766 96.1022 106.169 96.1949 105.468L96.8712 100.284Z" fill="url(#paint14_linear_129_4374)"/>
<path d="M28.686 62.6162L48.2548 69.7385L43.2972 76.6002L29.6732 66.7691L28.686 62.6162Z" fill="white"/>
<path d="M43.0407 76.3552L44.5296 70.8235C44.5896 70.6009 44.7587 70.4272 44.9768 70.3567L47.5838 69.5315C47.5893 69.5315 47.5893 69.5315 47.5947 69.5261L47.6165 69.5207C47.622 69.5207 47.6329 69.5207 47.6384 69.5152C47.6438 69.5152 47.6493 69.5152 47.6547 69.5098C47.6602 69.5098 47.6656 69.5098 47.6711 69.5098C47.802 69.4881 48.0583 69.4881 48.2547 69.7324C48.1074 69.8409 47.9711 69.8355 47.862 69.7867L45.9967 75.7527L43.2916 76.5887C43.2207 76.6104 43.1443 76.5941 43.0898 76.5398C43.0407 76.5018 43.0189 76.4258 43.0407 76.3552Z" fill="url(#paint15_linear_129_4374)"/>
<path d="M43.4824 76.3494L44.9495 70.9914C45.0095 70.7742 45.1731 70.6005 45.3913 70.5299L48.0583 69.6668C48.1183 69.6451 48.1837 69.6614 48.2274 69.7048C48.271 69.7482 48.2874 69.8134 48.271 69.8731L46.5094 75.5297C46.4657 75.6708 46.3512 75.7848 46.2094 75.8282L43.7388 76.5991C43.6679 76.6208 43.5915 76.6045 43.537 76.5502C43.4879 76.4959 43.4661 76.4199 43.4824 76.3494Z" fill="url(#paint16_linear_129_4374)"/>
<path d="M50.7802 74.3139C51.8874 75.2801 49.864 82.5381 44.1264 84.6987C39.6051 86.4033 34.2057 84.5141 31.6151 80.7684C30.1207 78.6079 28.7681 74.759 30.4261 72.8807C30.5025 72.7939 31.4405 71.7679 32.7713 71.8439C35.8637 72.0121 36.0655 77.799 39.3815 78.5101C40.1614 78.6784 40.4396 78.4179 46.9516 75.595C50.0985 74.2324 50.5184 74.0859 50.7802 74.3139Z" fill="url(#paint17_linear_129_4374)"/>
<path d="M42.3375 77.2026C42.3375 77.2026 42.0593 76.1278 42.7247 75.6338C43.3901 75.1398 43.6682 73.8423 43.7773 74.3092C43.8864 74.776 43.7773 75.3298 43.7773 75.3298C43.7773 75.3298 46.1552 73.2615 46.128 73.978C46.1007 74.6946 44.3827 77.0886 43.2755 77.5609C42.1684 78.0278 42.3538 78.0983 42.3375 77.2026Z" fill="url(#paint18_linear_129_4374)"/>
<path d="M50.4801 74.3906C50.4801 74.3906 50.5183 72.8652 51.3091 72.5178C52.0999 72.1703 53.0053 70.4061 52.9507 71.3072C52.8962 72.2083 52.0836 72.6318 52.0836 72.6318C52.0836 72.6318 53.3925 73.0986 52.8198 73.8315C52.2472 74.5589 51.6036 74.7055 50.9382 75.0366C50.9382 75.0366 50.7583 75.5903 50.3001 75.5089C49.842 75.4275 50.2401 74.6403 50.4801 74.3906Z" fill="url(#paint19_linear_129_4374)"/>
<path d="M22.654 93.3198C18.2363 95.426 14.0423 94.7963 11.108 94.3566C7.79202 93.8626 4.60146 93.3795 3.34705 90.9149C2.10901 88.472 3.21616 84.9652 5.17413 83.0598C7.47569 80.8178 9.77181 81.936 11.3698 79.7483C13.0115 77.5118 11.0753 75.6932 12.5424 73.1906C14.3913 70.042 18.3672 71.3775 20.3034 68.1909C21.8905 65.5743 19.9434 63.4409 21.5414 61.7635C23.7557 59.44 30.2187 60.6832 31.2549 63.4192C31.6585 64.4886 31.0477 65.2866 30.595 66.7903C29.1551 71.5783 32.1003 74.2926 32.373 78.6355C32.7329 84.5201 28.0971 90.7249 22.654 93.3198Z" fill="url(#paint20_linear_129_4374)"/>
<path d="M19.6598 143.263C19.6598 143.263 24.0775 143.822 24.2466 144.821C24.4429 145.982 19.3326 144.962 19.3326 144.962C19.3326 144.962 18.5472 144.707 19.6598 143.263Z" fill="url(#paint21_linear_129_4374)"/>
<path d="M19.9382 140.885L19.8291 143.338C19.8291 143.338 20.369 144.022 20.9908 143.528L21.4816 140.885H19.9382Z" fill="url(#paint22_linear_129_4374)"/>
<path d="M26.8592 144.451C26.8592 144.451 31.2769 145.01 31.4459 146.009C31.6423 147.171 26.5319 146.15 26.5319 146.15C26.5319 146.15 25.752 145.895 26.8592 144.451Z" fill="url(#paint23_linear_129_4374)"/>
<path d="M27.1428 142.074L27.0337 144.528C27.0337 144.528 27.5736 145.212 28.1954 144.718L28.6862 142.074H27.1428Z" fill="url(#paint24_linear_129_4374)"/>
<path d="M33.1038 101.587C32.8693 105.137 32.302 110.257 30.7586 116.282C30.2023 118.448 29.646 120.256 28.3861 124.013C26.8863 128.497 24.7701 134.62 22.0104 142.019C21.2087 142.139 20.4124 142.263 19.6107 142.383C17.9527 136.379 18.4326 131.656 20.1288 127.899C21.1378 125.674 21.7268 125.657 22.7631 123.171C23.8648 120.533 24.312 117.873 24.0339 108.899C23.9575 106.359 23.8102 102.982 23.5103 98.9814C26.7117 99.85 29.9078 100.719 33.1038 101.587Z" fill="url(#paint25_linear_129_4374)"/>
<path opacity="0.3" d="M33.1039 101.588C32.8693 105.138 32.3021 110.257 30.7587 116.283C30.2024 118.449 29.6461 120.256 28.3862 124.013C26.8864 128.497 24.7702 134.62 22.0105 142.02C21.2088 142.139 20.4125 142.264 19.6108 142.383C18.1982 136.776 19.2345 133.833 20.5161 132.172C21.3124 131.146 22.3105 130.468 23.0359 128.698C23.8921 126.619 23.2868 125.674 23.734 123.242C24.3339 119.958 25.7574 119.909 26.2646 117.347C26.8591 114.318 25.1738 112.863 24.0394 108.905C23.4067 106.701 22.8504 103.401 23.5158 98.9873C26.7118 99.8504 29.9079 100.719 33.1039 101.588Z" fill="url(#paint26_linear_129_4374)"/>
<path d="M27.5628 101.023C29.5753 103.542 35.2256 111.305 35.3892 122.596C35.5419 133.128 30.8351 140.636 28.9426 143.334C28.1572 143.263 27.3719 143.192 26.581 143.122C26.3847 140.891 26.2811 137.541 26.9737 133.573C28.0045 127.661 29.6298 127.026 29.3844 123.655C29.079 119.426 26.3902 118.748 22.2124 111.072C19.96 106.935 17.2657 101.99 19.0164 100.16C19.3491 99.8073 20.9744 98.3904 27.5628 101.023Z" fill="url(#paint27_linear_129_4374)"/>
<path d="M29.608 70.0859C32.4386 70.6016 34.1403 72.5342 34.6039 73.0825C35.1874 73.7665 36.9054 75.9868 36.9382 81.6814C36.9709 87.1371 35.4056 87.7722 34.9311 92.9456C34.233 100.584 37.1836 104.167 35.122 105.887C33.3713 107.353 31.2388 104.747 25.3431 105.03C20.4727 105.263 19.5346 107.147 15.3514 106.68C14.7133 106.609 9.12301 105.92 8.26129 103.01C7.66135 100.985 9.8702 99.6608 12.8917 94.7642C15.7877 90.0794 17.2112 85.7148 17.9202 83.5488C20.0527 77.0128 19.1692 75.2268 21.5798 72.8328C21.8743 72.5342 25.2503 69.2988 29.608 70.0859Z" fill="url(#paint28_linear_129_4374)"/>
<path d="M26.7446 64.9014C26.7446 64.9014 27.3227 68.8914 25.1248 71.0302C24.9666 71.1822 25.043 71.4428 25.2557 71.4917C26.2755 71.7034 28.6535 72.0508 30.955 71.2799C31.1568 71.2148 31.2005 70.9488 31.0368 70.8185C30.5569 70.4331 29.7443 69.7002 29.3134 68.8154C28.6753 67.5071 28.5607 65.2705 28.5607 65.2705L26.7446 64.9014Z" fill="url(#paint29_linear_129_4374)"/>
<g opacity="0.3">
<path d="M12.8859 94.7639C15.7819 90.079 17.2054 85.7145 17.9144 83.5485C20.0469 77.0125 19.1634 75.2265 21.574 72.8325C21.7267 72.6805 22.6975 71.7522 24.1864 70.9922C23.7883 72.2733 23.5538 73.7825 23.7774 75.4219C24.541 80.9916 29.9404 82.9296 29.2532 86.393C28.626 89.5579 23.8156 89.4276 23.1229 92.8205C22.4139 96.3165 27.0716 98.6073 26.1226 101.066C25.2118 103.439 20.5268 102.19 15.8855 105.024C15.1765 105.458 14.5384 105.941 13.9603 106.462C12.0623 106.082 8.88811 105.149 8.25546 103.01C7.66098 100.985 9.86437 99.6605 12.8859 94.7639Z" fill="url(#paint30_linear_129_4374)"/>
</g>
<path d="M26.679 66.3232C26.679 66.3232 27.6716 67.6803 29.2314 67.1158C30.6276 66.6109 29.7932 63.0226 28.686 62.6155C28.3152 62.4798 27.6389 62.5395 27.1862 62.8218C26.8699 63.0172 26.0191 64.0703 26.5045 65.2483C26.15 65.1452 25.8445 65.2375 25.7627 65.4112C25.6646 65.6338 25.9645 65.9323 26.03 65.9975C26.2645 66.2363 26.5481 66.3015 26.679 66.3232Z" fill="url(#paint31_linear_129_4374)"/>
<path d="M43.9737 77.273C43.4501 77.0775 42.9265 76.8767 42.3975 76.6812C42.0866 77.2404 40.025 80.8395 36.1691 81.3878C32.5313 81.9035 29.1171 79.4444 27.53 77.0395C26.0247 74.7541 26.3302 72.7672 24.923 72.333C23.505 71.8987 21.7488 73.4675 20.9144 74.5424C18.9401 77.083 19.0055 80.8775 20.2272 83.5972C22.2124 88.0215 27.5464 90.2852 32.095 89.8238C39.1415 89.1127 42.403 82.0501 42.9538 80.7744C43.5537 79.3955 43.8319 78.1578 43.9737 77.273Z" fill="url(#paint32_linear_129_4374)"/>
<path d="M18.7597 60.3087C18.5579 60.3142 18.3779 60.1513 18.3779 59.945V54.9453C18.3779 54.7445 18.5415 54.5762 18.7488 54.5762H22.752C22.9483 54.5762 23.112 54.739 23.112 54.9399C23.112 55.1407 22.9647 55.3036 22.7684 55.3036L19.1469 55.309V59.9287C19.1415 60.1405 18.9615 60.3087 18.7597 60.3087Z" fill="url(#paint33_linear_129_4374)"/>
<path d="M22.7466 74.9712L18.7434 75.2155C18.5416 75.2264 18.3726 75.0744 18.3726 74.8681V69.8684C18.3726 69.6675 18.5525 69.4938 18.7543 69.483C18.9561 69.4721 19.1361 69.6295 19.1361 69.8358V74.4555L22.7575 74.2384C22.9539 74.2275 23.112 74.3795 23.112 74.5804C23.112 74.7812 22.9484 74.9604 22.7466 74.9712Z" fill="url(#paint34_linear_129_4374)"/>
<path d="M37.0195 59.9993C36.8395 60.0047 36.7031 59.8473 36.7031 59.6573V55.2765L33.349 55.2819C33.1635 55.2819 33.0054 55.1245 33.0054 54.929C33.0054 54.7336 33.1472 54.5762 33.3326 54.5762H36.9977C37.1776 54.5762 37.3249 54.7336 37.3249 54.9236V59.641C37.3304 59.8365 37.1995 59.9939 37.0195 59.9993Z" fill="url(#paint35_linear_129_4374)"/>
<path d="M37.0032 74.097L33.3381 74.325C33.1527 74.3359 33 74.1893 33 73.9939C33 73.7984 33.1691 73.6356 33.3545 73.6247L36.7087 73.4293V69.0484C36.7087 68.8584 36.8396 68.6956 37.025 68.6847C37.205 68.6793 37.3359 68.8259 37.3359 69.0159V73.7333C37.3304 73.9233 37.1832 74.0861 37.0032 74.097Z" fill="url(#paint36_linear_129_4374)"/>
<path d="M92.6119 71.1607C82.2003 71.1607 74.5484 62.4858 75.5301 52.0195C76.4955 41.765 85.4291 33.5732 95.4589 33.5732C105.489 33.5732 113.184 41.765 112.59 52.0195C111.99 62.4858 103.024 71.1607 92.6119 71.1607Z" fill="#AABBCC"/>
<path d="M111.864 52.0252C111.275 62.0898 102.68 70.4009 92.6661 70.4009C82.6526 70.4009 75.3171 62.0952 76.2551 52.0252C77.1769 42.156 85.7396 34.29 95.404 34.29C105.068 34.29 112.442 42.1506 111.864 52.0252Z" fill="#EAEDF3"/>
<path d="M93.1027 39.1816C89.7104 39.0839 86.3398 40.8428 84.6927 43.2965C82.6966 46.2713 84.8945 47.7588 83.3347 52.6445C81.8894 57.1828 79.3533 57.9645 79.4897 60.9719C79.6424 64.2833 82.8547 66.4005 84.1255 67.2365C89.8685 71.0148 99.3475 70.8573 104.463 65.9879C104.889 65.5808 108.385 62.253 107.687 59.2022C107.065 56.4933 103.683 56.4716 103.171 53.6705C102.729 51.271 105.08 50.4948 105.085 47.0422C105.085 46.369 105.09 43.1933 102.653 41.733C101.033 40.7613 99.1566 41.0382 98.4694 41.1739C97.7004 40.5659 95.8133 39.263 93.1027 39.1816Z" fill="url(#paint37_linear_129_4374)"/>
<path d="M73.4629 64.348C73.4629 64.348 91.8318 54.6417 112.791 64.3154C112.791 64.3154 109.53 72.7514 92.8299 73.3323C75.5518 73.9348 73.4629 64.348 73.4629 64.348Z" fill="url(#paint38_linear_129_4374)"/>
<path d="M91.3844 51.7539L90.37 56.3356C90.0209 57.9099 88.7719 59.2291 87.1303 59.7393L81.6382 61.4548C81.6382 61.4548 91.5153 66.1613 104.79 61.4548L99.0417 59.5059C97.4165 58.9088 96.3911 57.4159 96.4402 55.7168L96.5602 51.8082L91.3844 51.7539Z" fill="url(#paint39_linear_129_4374)"/>
<path d="M99.5547 47.8345C99.282 51.6725 96.5223 55.8036 93.4571 55.7819C90.3757 55.7602 88.205 51.5422 88.5213 47.6608C88.8376 43.8119 91.4828 41.7762 94.5152 41.8414C97.5367 41.9065 99.8219 44.0291 99.5547 47.8345Z" fill="url(#paint40_linear_129_4374)"/>
<path d="M96.7511 44.3385C95.104 44.3874 92.5843 44.7131 90.719 46.3851C87.5776 49.2079 88.592 53.7951 87.2667 54.0556C86.0832 54.2891 84.567 51.0048 84.8997 47.4491C85.1778 44.4905 86.5468 41.0434 89.4155 40.2345C91.0953 39.7622 91.5153 40.5982 96.7729 41.2008C99.838 41.5536 98.5345 42.8239 99.1945 43.3179C102.134 45.5328 101.251 52.6714 99.5653 52.7419C98.7636 52.7799 97.8037 50.8854 96.7511 44.3385Z" fill="url(#paint41_linear_129_4374)"/>
<defs>
<linearGradient id="paint0_linear_129_4374" x1="105.085" y1="72.1008" x2="129.347" y2="74.7599" gradientUnits="userSpaceOnUse">
<stop stop-color="#444B8C"/>
<stop offset="0.9964" stop-color="#26264F"/>
</linearGradient>
<linearGradient id="paint1_linear_129_4374" x1="83.7051" y1="11.2216" x2="143.191" y2="214.684" gradientUnits="userSpaceOnUse">
<stop stop-color="#444B8C"/>
<stop offset="0.9964" stop-color="#26264F"/>
</linearGradient>
<linearGradient id="paint2_linear_129_4374" x1="60.7514" y1="77.5299" x2="141.691" y2="77.5299" gradientUnits="userSpaceOnUse">
<stop stop-color="#AA80F9"/>
<stop offset="0.9964" stop-color="#6165D7"/>
</linearGradient>
<linearGradient id="paint3_linear_129_4374" x1="106.188" y1="6.21371" x2="176.127" y2="196.516" gradientUnits="userSpaceOnUse">
<stop stop-color="#FFC444"/>
<stop offset="0.9964" stop-color="#F36F56"/>
</linearGradient>
<linearGradient id="paint4_linear_129_4374" x1="55.0945" y1="73.9555" x2="133.024" y2="73.9555" gradientUnits="userSpaceOnUse">
<stop stop-color="#311944"/>
<stop offset="1" stop-color="#893976"/>
</linearGradient>
<linearGradient id="paint5_linear_129_4374" x1="122.705" y1="124.302" x2="99.4157" y2="124.302" gradientUnits="userSpaceOnUse">
<stop stop-color="#FF9085"/>
<stop offset="1" stop-color="#FB6FBB"/>
</linearGradient>
<linearGradient id="paint6_linear_129_4374" x1="143.269" y1="118.482" x2="106.143" y2="118.482" gradientUnits="userSpaceOnUse">
<stop stop-color="#FFC444"/>
<stop offset="0.9964" stop-color="#F36F56"/>
</linearGradient>
<linearGradient id="paint7_linear_129_4374" x1="148.484" y1="137.847" x2="111.242" y2="137.847" gradientUnits="userSpaceOnUse">
<stop offset="0.00359712" stop-color="#E38DDD"/>
<stop offset="1" stop-color="#9571F6"/>
</linearGradient>
<linearGradient id="paint8_linear_129_4374" x1="12.2826" y1="27.1125" x2="47.5702" y2="27.1125" gradientUnits="userSpaceOnUse">
<stop stop-color="#444B8C"/>
<stop offset="0.9964" stop-color="#26264F"/>
</linearGradient>
<linearGradient id="paint9_linear_129_4374" x1="14.3707" y1="27.7343" x2="49.6583" y2="27.7343" gradientUnits="userSpaceOnUse">
<stop stop-color="#AA80F9"/>
<stop offset="0.9964" stop-color="#6165D7"/>
</linearGradient>
<linearGradient id="paint10_linear_129_4374" x1="112.251" y1="38.3511" x2="119.268" y2="28.79" gradientUnits="userSpaceOnUse">
<stop stop-color="#AA80F9"/>
<stop offset="0.9964" stop-color="#6165D7"/>
</linearGradient>
<linearGradient id="paint11_linear_129_4374" x1="108.795" y1="67.8075" x2="114.648" y2="75.7831" gradientUnits="userSpaceOnUse">
<stop stop-color="#AA80F9"/>
<stop offset="0.9964" stop-color="#6165D7"/>
</linearGradient>
<linearGradient id="paint12_linear_129_4374" x1="80.7876" y1="37.1918" x2="75.2113" y2="29.594" gradientUnits="userSpaceOnUse">
<stop stop-color="#AA80F9"/>
<stop offset="0.9964" stop-color="#6165D7"/>
</linearGradient>
<linearGradient id="paint13_linear_129_4374" x1="77.6093" y1="65.2529" x2="71.1682" y2="74.029" gradientUnits="userSpaceOnUse">
<stop stop-color="#AA80F9"/>
<stop offset="0.9964" stop-color="#6165D7"/>
</linearGradient>
<linearGradient id="paint14_linear_129_4374" x1="71.497" y1="80.6416" x2="117.811" y2="145.219" gradientUnits="userSpaceOnUse">
<stop stop-color="#AA80F9"/>
<stop offset="0.9964" stop-color="#6165D7"/>
</linearGradient>
<linearGradient id="paint15_linear_129_4374" x1="43.7008" y1="67.8678" x2="44.4328" y2="69.8534" gradientUnits="userSpaceOnUse">
<stop stop-color="#444B8C"/>
<stop offset="0.9964" stop-color="#26264F"/>
</linearGradient>
<linearGradient id="paint16_linear_129_4374" x1="48.2818" y1="73.1339" x2="43.4778" y2="73.1339" gradientUnits="userSpaceOnUse">
<stop stop-color="#444B8C"/>
<stop offset="0.9964" stop-color="#26264F"/>
</linearGradient>
<linearGradient id="paint17_linear_129_4374" x1="51.07" y1="78.5889" x2="29.6713" y2="78.5889" gradientUnits="userSpaceOnUse">
<stop stop-color="#FFC444"/>
<stop offset="0.9964" stop-color="#F36F56"/>
</linearGradient>
<linearGradient id="paint18_linear_129_4374" x1="46.1284" y1="75.8644" x2="42.2794" y2="75.8644" gradientUnits="userSpaceOnUse">
<stop stop-color="#311944"/>
<stop offset="1" stop-color="#A03976"/>
</linearGradient>
<linearGradient id="paint19_linear_129_4374" x1="52.9701" y1="73.2858" x2="50.0962" y2="73.2858" gradientUnits="userSpaceOnUse">
<stop stop-color="#311944"/>
<stop offset="1" stop-color="#A03976"/>
</linearGradient>
<linearGradient id="paint20_linear_129_4374" x1="26.4529" y1="74.3305" x2="9.62292" y2="87.8443" gradientUnits="userSpaceOnUse">
<stop stop-color="#311944"/>
<stop offset="1" stop-color="#893976"/>
</linearGradient>
<linearGradient id="paint21_linear_129_4374" x1="26.4362" y1="138.857" x2="18.8255" y2="147.894" gradientUnits="userSpaceOnUse">
<stop stop-color="#444B8C"/>
<stop offset="0.9964" stop-color="#3E4177"/>
</linearGradient>
<linearGradient id="paint22_linear_129_4374" x1="20.7852" y1="139.846" x2="20.3544" y2="145.992" gradientUnits="userSpaceOnUse">
<stop stop-color="#311944"/>
<stop offset="1" stop-color="#893976"/>
</linearGradient>
<linearGradient id="paint23_linear_129_4374" x1="31.2222" y1="142.887" x2="23.6115" y2="151.924" gradientUnits="userSpaceOnUse">
<stop stop-color="#444B8C"/>
<stop offset="0.9964" stop-color="#3E4177"/>
</linearGradient>
<linearGradient id="paint24_linear_129_4374" x1="28.0347" y1="140.355" x2="27.6039" y2="146.501" gradientUnits="userSpaceOnUse">
<stop stop-color="#311944"/>
<stop offset="1" stop-color="#893976"/>
</linearGradient>
<linearGradient id="paint25_linear_129_4374" x1="33.1022" y1="120.681" x2="18.5857" y2="120.681" gradientUnits="userSpaceOnUse">
<stop stop-color="#444B8C"/>
<stop offset="0.9964" stop-color="#3E4177"/>
</linearGradient>
<linearGradient id="paint26_linear_129_4374" x1="33.1023" y1="120.681" x2="18.932" y2="120.681" gradientUnits="userSpaceOnUse">
<stop stop-color="#444B8C"/>
<stop offset="0.9964" stop-color="#3E4177"/>
</linearGradient>
<linearGradient id="paint27_linear_129_4374" x1="35.3926" y1="121.399" x2="18.4575" y2="121.399" gradientUnits="userSpaceOnUse">
<stop stop-color="#444B8C"/>
<stop offset="0.9964" stop-color="#3E4177"/>
</linearGradient>
<linearGradient id="paint28_linear_129_4374" x1="36.9411" y1="88.359" x2="8.15974" y2="88.359" gradientUnits="userSpaceOnUse">
<stop stop-color="#FFC444"/>
<stop offset="0.9964" stop-color="#F36F56"/>
</linearGradient>
<linearGradient id="paint29_linear_129_4374" x1="32.9047" y1="71.6086" x2="25.5506" y2="67.6201" gradientUnits="userSpaceOnUse">
<stop stop-color="#311944"/>
<stop offset="1" stop-color="#A03976"/>
</linearGradient>
<linearGradient id="paint30_linear_129_4374" x1="36.9407" y1="88.7252" x2="8.15941" y2="88.7252" gradientUnits="userSpaceOnUse">
<stop stop-color="#FFC444"/>
<stop offset="0.9964" stop-color="#F36F56"/>
</linearGradient>
<linearGradient id="paint31_linear_129_4374" x1="22.4967" y1="61.268" x2="28.0253" y2="64.7968" gradientUnits="userSpaceOnUse">
<stop stop-color="#311944"/>
<stop offset="1" stop-color="#A03976"/>
</linearGradient>
<linearGradient id="paint32_linear_129_4374" x1="43.9743" y1="81.0716" x2="19.358" y2="81.0716" gradientUnits="userSpaceOnUse">
<stop stop-color="#FFC444"/>
<stop offset="0.9964" stop-color="#F36F56"/>
</linearGradient>
<linearGradient id="paint33_linear_129_4374" x1="21.4607" y1="58.4153" x2="18.638" y2="54.5694" gradientUnits="userSpaceOnUse">
<stop stop-color="#AA80F9"/>
<stop offset="0.9964" stop-color="#6165D7"/>
</linearGradient>
<linearGradient id="paint34_linear_129_4374" x1="21.4101" y1="71.3352" x2="18.5743" y2="75.199" gradientUnits="userSpaceOnUse">
<stop stop-color="#AA80F9"/>
<stop offset="0.9964" stop-color="#6165D7"/>
</linearGradient>
<linearGradient id="paint35_linear_129_4374" x1="34.4861" y1="58.2153" x2="37.1368" y2="54.6038" gradientUnits="userSpaceOnUse">
<stop stop-color="#AA80F9"/>
<stop offset="0.9964" stop-color="#6165D7"/>
</linearGradient>
<linearGradient id="paint36_linear_129_4374" x1="34.4357" y1="70.5118" x2="37.0756" y2="74.1087" gradientUnits="userSpaceOnUse">
<stop stop-color="#AA80F9"/>
<stop offset="0.9964" stop-color="#6165D7"/>
</linearGradient>
<linearGradient id="paint37_linear_129_4374" x1="92.1668" y1="35.793" x2="90.4949" y2="7.51751" gradientUnits="userSpaceOnUse">
<stop stop-color="#311944"/>
<stop offset="1" stop-color="#893976"/>
</linearGradient>
<linearGradient id="paint38_linear_129_4374" x1="77.9809" y1="-22.3544" x2="105.661" y2="137.553" gradientUnits="userSpaceOnUse">
<stop stop-color="#FFC444"/>
<stop offset="0.9964" stop-color="#F36F56"/>
</linearGradient>
<linearGradient id="paint39_linear_129_4374" x1="93.4968" y1="65.8167" x2="92.1044" y2="44.4028" gradientUnits="userSpaceOnUse">
<stop stop-color="#893976"/>
<stop offset="1" stop-color="#311944"/>
</linearGradient>
<linearGradient id="paint40_linear_129_4374" x1="97.0197" y1="46.3743" x2="73.2018" y2="63.403" gradientUnits="userSpaceOnUse">
<stop stop-color="#893976"/>
<stop offset="1" stop-color="#311944"/>
</linearGradient>
<linearGradient id="paint41_linear_129_4374" x1="92.2281" y1="35.7891" x2="90.5562" y2="7.51362" gradientUnits="userSpaceOnUse">
<stop stop-color="#311944"/>
<stop offset="1" stop-color="#893976"/>
</linearGradient>
</defs>
</svg>
