<svg width="96" height="96" viewBox="0 0 96 96" fill="none" xmlns="http://www.w3.org/2000/svg">
<path d="M72 32L75.7948 33.2649C79.7548 34.585 81.7348 35.245 82.8676 36.8163C84 38.3876 84 40.4748 84 44.6492V67.316C84 72.4796 84 75.0612 82.6412 76.72C82.1796 77.2832 81.6192 77.7576 80.988 78.1204C79.1284 79.188 76.582 78.7636 71.4884 77.9148C66.4628 77.0772 63.95 76.6584 61.4592 76.8668C60.5852 76.94 59.7168 77.0704 58.86 77.2576C56.4184 77.7908 54.1196 78.94 49.5224 81.2388C43.5236 84.2384 40.524 85.738 37.3314 86.2004C36.3697 86.3396 35.3992 86.4084 34.4275 86.4064C31.2014 86.4004 28.0474 85.3492 21.7395 83.2464L20.2053 82.7352C16.2452 81.4152 14.2651 80.7552 13.1326 79.1836C12 77.6124 12 75.5252 12 71.3508V51.632C12 44.9964 12 41.6788 13.9536 39.8943C14.2955 39.5821 14.6724 39.3105 15.0767 39.0849C17.3872 37.7958 20.5348 38.8449 26.8298 40.9432" stroke="#979798" stroke-width="8"/>
<path d="M24 30.8012C24 18.2084 34.7452 8 48 8C61.2548 8 72 18.2084 72 30.8012C72 43.2952 64.34 57.8748 52.3888 63.0884C49.6028 64.304 46.3972 64.304 43.6112 63.0884C31.66 57.8748 24 43.2952 24 30.8012Z" stroke="#979798" stroke-width="8"/>
<path d="M48 40C52.4183 40 56 36.4183 56 32C56 27.5817 52.4183 24 48 24C43.5817 24 40 27.5817 40 32C40 36.4183 43.5817 40 48 40Z" stroke="#979798" stroke-width="8"/>
<path d="M18.4818 56.6267L77.3344 7.16539" stroke="#323232" stroke-width="8" stroke-linecap="round"/>
</svg>
