<svg width="178" height="178" viewBox="0 0 178 178" fill="none" xmlns="http://www.w3.org/2000/svg">
<g clip-path="url(#clip0_129_3910)">
<path d="M155.561 150.926C152.015 154.611 148.661 156.99 146.013 158.866C114.87 180.941 78.0226 174.507 70.1925 172.934C58.6297 170.611 36.2766 166.13 20.1127 147.351C-4.33715 118.948 -0.532463 74.194 18.4334 44.6537C21.9023 39.2513 40.2252 9.25996 77.4709 4.44773C100.011 1.53544 126.284 7.408 145.312 23.1545C185.259 56.2165 182.419 122.998 155.561 150.926Z" fill="url(#paint0_linear_129_3910)"/>
<path d="M89.5996 152.26C89.5996 152.26 116.664 83.8903 156.87 76.4201C157.585 76.2857 158.233 76.8567 158.199 77.5812C157.791 86.0206 152.638 130.65 89.5996 152.26Z" fill="#8FDED5"/>
<path opacity="0.62" d="M149.645 87.5124C147.591 90.4439 145.442 93.2938 143.259 96.1245C142.717 96.8346 142.16 97.5303 141.608 98.2355C141.052 98.936 140.51 99.6461 139.948 100.337L138.264 102.419C137.698 103.11 137.146 103.815 136.571 104.497C135.424 105.864 134.282 107.241 133.126 108.604L129.619 112.658C127.239 115.321 124.859 117.988 122.403 120.589L120.575 122.551C119.975 123.213 119.337 123.837 118.718 124.485L114.99 128.337L111.166 132.099C110.528 132.722 109.895 133.356 109.242 133.97L107.27 135.788C105.951 136.997 104.651 138.221 103.307 139.406L99.2339 142.899L98.2119 143.767C97.8665 144.055 97.5354 144.348 97.1804 144.626L95.0741 146.291C94.3736 146.847 93.6636 147.389 92.9631 147.941C92.2578 148.493 91.5525 149.04 90.8424 149.582C90.7897 149.625 90.7081 149.616 90.6697 149.558C90.6313 149.505 90.6361 149.433 90.6889 149.39L90.6937 149.385C91.3702 148.805 92.0515 148.229 92.7376 147.653C93.4189 147.078 94.1002 146.497 94.7863 145.931L96.8445 144.218C97.521 143.638 98.1783 143.033 98.8548 142.448L102.885 138.926L106.834 135.313L108.81 133.509C109.141 133.207 109.453 132.89 109.78 132.583L110.749 131.657L114.621 127.963C117.139 125.435 119.701 122.944 122.129 120.33C123.357 119.034 124.6 117.753 125.785 116.419C126.98 115.095 128.189 113.781 129.379 112.447L132.9 108.412C134.061 107.059 135.203 105.687 136.36 104.319C136.94 103.643 137.497 102.942 138.063 102.251L139.756 100.174C140.323 99.483 140.87 98.7777 141.426 98.0772C141.978 97.3767 142.539 96.681 143.086 95.9758C145.264 93.1498 147.414 90.2951 149.458 87.3732C149.496 87.3157 149.573 87.3013 149.63 87.3444C149.669 87.378 149.683 87.4548 149.645 87.5124Z" fill="white"/>
<g opacity="0.79">
<path d="M83.041 113.051C83.041 113.051 96.1967 52.68 135.913 21.3837C136.431 20.9759 137.199 21.235 137.357 21.8731C139.857 31.9773 152.864 96.4604 83.041 113.051Z" fill="#8BDAC2"/>
<path opacity="0.62" d="M131.696 38.7954C131.241 40.5466 130.708 42.2738 130.151 43.9914C129.59 45.7091 129 47.4171 128.376 49.1107C127.119 52.498 125.752 55.8421 124.279 59.143C123.914 59.9683 123.526 60.7839 123.151 61.6091C122.772 62.4296 122.369 63.2356 121.976 64.0512C121.587 64.8669 121.17 65.6681 120.762 66.4741L120.148 67.6832L119.51 68.8779C117.811 72.0684 116.022 75.211 114.098 78.272C112.164 81.3283 110.154 84.3365 107.985 87.2296C107.717 87.5942 107.453 87.9589 107.179 88.3235L106.349 89.3934L105.519 90.4633C105.241 90.8184 104.972 91.183 104.68 91.5285L102.953 93.6203L102.521 94.1433L102.07 94.6519L101.173 95.669C96.4035 101.11 91.0683 106.047 85.3012 110.394C85.2533 110.427 85.1861 110.418 85.1525 110.374C85.1189 110.326 85.1237 110.264 85.1717 110.226H85.1765L87.2732 108.518L88.3239 107.668L89.341 106.776L91.3705 104.991L93.3328 103.134C93.6591 102.823 93.9901 102.52 94.3116 102.204L95.2616 101.244C95.8901 100.601 96.533 99.9727 97.1519 99.3154C98.3706 97.9864 99.6132 96.6862 100.769 95.3092L101.652 94.2872L102.094 93.7787L102.521 93.2557L104.229 91.1638C104.517 90.8184 104.785 90.4586 105.064 90.1035L105.889 89.0336L106.714 87.9637C106.983 87.6038 107.247 87.2392 107.51 86.8746C109.66 83.9863 111.646 80.9828 113.561 77.9314C115.484 74.8896 117.284 71.7662 118.982 68.5948L119.62 67.4049L120.239 66.2055C120.647 65.4042 121.069 64.6078 121.458 63.7969C122.259 62.1849 123.027 60.5584 123.79 58.9223C125.296 55.6502 126.697 52.3301 127.992 48.9668C128.65 47.2876 129.269 45.5987 129.859 43.8955C130.156 43.0463 130.439 42.1922 130.718 41.3334C130.996 40.4794 131.265 39.6158 131.514 38.7522C131.528 38.6946 131.591 38.661 131.648 38.6802C131.682 38.6802 131.716 38.7426 131.696 38.7954Z" fill="white"/>
</g>
<path d="M62.4004 109.809C62.4004 109.809 57.2715 56.2503 26.1671 25.0883C25.7593 24.6805 25.0732 24.8244 24.8717 25.3618C21.6667 33.8444 3.75158 88.2471 62.4004 109.809Z" fill="#7CC5AA"/>
<path opacity="0.62" d="M28.2161 40.5563C28.7487 43.6461 29.4347 46.7119 30.2168 49.7489C30.9892 52.7908 31.8577 55.8038 32.8268 58.7881C33.3162 60.2754 33.8152 61.7627 34.3381 63.2405C34.5924 63.9841 34.8707 64.7134 35.1442 65.4475L35.5568 66.551L35.9886 67.6449C37.1305 70.562 38.3635 73.4455 39.7117 76.2762C41.0503 79.1069 42.4561 81.9089 44.0154 84.6292C44.2073 84.9699 44.3944 85.3153 44.5911 85.6512L45.1909 86.6587L45.7906 87.6663C45.9921 88.0021 46.1888 88.3428 46.3999 88.669L47.657 90.6505L47.9688 91.1495L48.2951 91.6389L48.9524 92.6129C49.8112 93.9275 50.7516 95.1797 51.6632 96.4511C52.1285 97.0797 52.6179 97.6938 53.0977 98.3127L53.8174 99.2435C54.0621 99.5505 54.3164 99.848 54.5659 100.15L56.0676 101.959L57.6317 103.715L58.4137 104.593L59.2294 105.437L60.8606 107.136C60.9038 107.179 60.899 107.246 60.8558 107.289C60.8126 107.328 60.7503 107.328 60.7071 107.289C56.1587 102.943 52.0518 98.1256 48.487 92.9295L47.8153 91.9604L47.4794 91.4758L47.158 90.9816L45.8818 88.9953C45.6659 88.669 45.4691 88.3236 45.2628 87.9877L44.6535 86.9754L44.0442 85.963C43.8475 85.6224 43.6556 85.277 43.4636 84.9363C41.8899 82.2111 40.4602 79.3996 39.1024 76.5593C37.7542 73.7142 36.5308 70.8067 35.3937 67.8752L34.9667 66.7765L34.5588 65.6682C34.2902 64.9293 34.0119 64.1904 33.7576 63.4468C33.5033 62.7031 33.2346 61.9642 32.9947 61.211C32.7549 60.4625 32.5102 59.714 32.2799 58.9608C30.4327 52.9443 28.8926 46.827 27.9906 40.5946C27.981 40.5371 28.0242 40.4795 28.0818 40.4747C28.1489 40.4555 28.2017 40.4939 28.2161 40.5563Z" fill="white"/>
<path d="M34.823 28.2739C34.3768 49.2884 32.9327 121.784 33.6236 147.476C33.6955 150.197 35.5619 152.385 37.8888 152.471C49.3941 152.912 91.5767 154.03 110.394 153.104C114.314 152.912 117.432 149.199 117.514 144.607C117.907 122.547 118.766 60.501 116.717 32.0786C116.473 28.6721 114.189 25.9613 111.281 25.6207C98.7495 24.1525 56.3893 20.5685 40.1294 21.8016C37.1931 22.0271 34.895 24.8386 34.823 28.2739Z" fill="url(#paint1_linear_129_3910)"/>
<path d="M39.9572 34.7224C39.3382 51.6876 37.3855 108.12 38.0044 128.986C38.0956 132.037 40.1491 134.503 42.7543 134.681C53.4775 135.415 90.061 137.032 105.788 135.559C108.619 135.295 110.841 132.613 110.994 129.293C111.79 111.987 114.079 59.4409 113.484 38.8054C113.388 35.5141 111.21 32.8273 108.403 32.5298C96.802 31.3112 57.9251 28.4133 44.5631 29.2673C42.0586 29.4304 40.0627 31.7862 39.9572 34.7224Z" fill="#7F7DF4"/>
<path d="M68.7197 25.9757C68.7197 26.6186 69.1515 27.1512 69.6985 27.1848C72.4141 27.3527 80.0714 27.8229 83.4923 28.0532C84.1688 28.1012 84.6965 27.3911 84.567 26.6138L84.543 26.4795C84.4567 25.9517 84.0824 25.5535 83.6218 25.5007C81.3093 25.2512 74.3284 24.5651 69.7081 24.7571C69.1563 24.7859 68.7197 25.3232 68.7197 25.9757Z" fill="url(#paint2_linear_129_3910)"/>
<path d="M74.0693 70.2978C82.9328 70.2978 90.1181 63.1125 90.1181 54.249C90.1181 45.3855 82.9328 38.2002 74.0693 38.2002C65.2058 38.2002 58.0205 45.3855 58.0205 54.249C58.0205 63.1125 65.2058 70.2978 74.0693 70.2978Z" fill="url(#paint3_linear_129_3910)"/>
<path d="M78.9819 48.1844C78.9819 50.8999 76.7797 53.8362 74.0593 53.8362C71.3437 53.8362 69.1367 50.9047 69.1367 48.1844C69.1367 45.4688 71.3389 43.54 74.0593 43.54C76.7797 43.54 78.9819 45.4688 78.9819 48.1844Z" fill="white"/>
<path d="M67.9521 64.3003H79.9659C81.2325 64.3003 82.3504 63.4847 82.7343 62.2804L83.382 60.2605C83.8569 58.7828 83.0845 57.1803 81.626 56.6478C76.7369 54.8582 71.6848 55.0885 66.5031 56.8109C65.0542 57.2955 64.2482 58.8452 64.6464 60.3229L65.1454 62.1557C65.4908 63.4223 66.6423 64.3003 67.9521 64.3003Z" fill="white"/>
<g opacity="0.71">
<path opacity="0.65" d="M104.848 95.9325H46.2756C46.098 95.9325 45.9541 95.7885 45.9541 95.611V87.1476C45.9541 86.9701 46.098 86.8262 46.2756 86.8262H104.848C105.025 86.8262 105.169 86.9701 105.169 87.1476V95.611C105.174 95.7838 105.03 95.9325 104.848 95.9325Z" fill="white"/>
<path opacity="0.65" d="M104.531 110.796H45.9592C45.7816 110.796 45.6377 110.652 45.6377 110.474V102.011C45.6377 101.833 45.7816 101.689 45.9592 101.689H104.531C104.709 101.689 104.853 101.833 104.853 102.011V110.474C104.853 110.652 104.709 110.796 104.531 110.796Z" fill="white"/>
<path opacity="0.65" d="M93.0933 128.524H55.6365C55.4158 128.524 55.2383 128.346 55.2383 128.126V117.311C55.2383 117.091 55.4158 116.913 55.6365 116.913H93.0933C93.314 116.913 93.4915 117.091 93.4915 117.311V128.126C93.4963 128.346 93.314 128.524 93.0933 128.524Z" fill="white"/>
</g>
<path opacity="0.75" d="M83.2722 93.9465H49.15C48.8333 93.9465 48.5742 93.6874 48.5742 93.3707V89.4605C48.5742 89.1438 48.8333 88.8848 49.15 88.8848H83.2722C83.5889 88.8848 83.848 89.1438 83.848 89.4605V93.3707C83.848 93.6874 83.5937 93.9465 83.2722 93.9465Z" fill="white"/>
<g opacity="0.75">
<path d="M50.6003 107.909C51.6603 107.47 52.1637 106.255 51.7246 105.195C51.2855 104.134 50.0702 103.631 49.0102 104.07C47.9502 104.509 47.4468 105.725 47.8859 106.785C48.325 107.845 49.5402 108.348 50.6003 107.909Z" fill="white"/>
<path d="M55.5013 108.172C56.6486 108.172 57.5788 107.241 57.5788 106.094C57.5788 104.947 56.6486 104.017 55.5013 104.017C54.3539 104.017 53.4238 104.947 53.4238 106.094C53.4238 107.241 54.3539 108.172 55.5013 108.172Z" fill="white"/>
<path d="M63.0083 106.845C63.272 105.729 62.5805 104.61 61.4639 104.346C60.3473 104.082 59.2284 104.774 58.9647 105.89C58.701 107.007 59.3925 108.126 60.5091 108.39C61.6257 108.653 62.7446 107.962 63.0083 106.845Z" fill="white"/>
<path d="M66.6898 108.547C67.8371 108.547 68.7672 107.616 68.7672 106.469C68.7672 105.322 67.8371 104.392 66.6898 104.392C65.5424 104.392 64.6123 105.322 64.6123 106.469C64.6123 107.616 65.5424 108.547 66.6898 108.547Z" fill="white"/>
<path d="M72.3949 108.489C73.5422 108.489 74.4723 107.559 74.4723 106.411C74.4723 105.264 73.5422 104.334 72.3949 104.334C71.2475 104.334 70.3174 105.264 70.3174 106.411C70.3174 107.559 71.2475 108.489 72.3949 108.489Z" fill="white"/>
<path d="M78.095 108.599C79.2424 108.599 80.1725 107.669 80.1725 106.522C80.1725 105.374 79.2424 104.444 78.095 104.444C76.9477 104.444 76.0176 105.374 76.0176 106.522C76.0176 107.669 76.9477 108.599 78.095 108.599Z" fill="white"/>
</g>
<path d="M101.825 113.301L108.192 114.894L106.599 126.831C106.599 126.831 108.988 129.22 109.78 132.401C110.576 135.582 111.31 148.949 111.31 148.949L112.822 149.86L113.004 150.623L108.609 156.534L109.339 151.832C109.454 151.084 109.252 149.572 109.315 149.539C106.925 143.172 101.82 125.238 101.82 125.238V113.301H101.825Z" fill="url(#paint4_linear_129_3910)"/>
<path d="M99.9632 150.71C100.03 150.71 100.098 150.714 100.17 150.71C99.8624 146.871 98.4567 129.983 97.0509 123.65C95.458 116.487 99.4402 102.165 99.4402 102.165L106.603 109.328L102.626 122.858C105.351 126.946 102.18 150.902 102.252 150.892L102.247 150.945L103.283 152.374L103.159 153.147L96.8158 156.889L99.3107 152.835C99.6993 152.187 99.92 151.458 99.9632 150.71Z" fill="url(#paint5_linear_129_3910)"/>
<path d="M108.019 70.3984C108.019 70.3984 121.961 86.1162 108.019 94.1718L106.599 93.145C106.599 93.145 113.522 86.5144 106.599 78.4012L108.019 70.3984Z" fill="url(#paint6_linear_129_3910)"/>
<path d="M96.389 157.47H98.4137C98.7927 157.47 99.1478 157.297 99.3829 156.995C100.016 156.174 101.321 154.577 101.945 154.533C102.785 154.476 102.679 157.47 102.679 157.47H103.149L103.749 153.751C103.898 152.816 103.432 151.89 102.593 151.453C102.593 151.453 102.401 152.873 101.36 153.507C100.318 154.135 97.1135 156.39 97.1135 156.39C97.1135 156.39 96.7201 156.333 96.2931 156.414C95.655 156.524 95.7413 157.47 96.389 157.47Z" fill="url(#paint7_linear_129_3910)"/>
<path d="M108.455 157.24L110.322 156.453C110.672 156.304 110.931 156.007 111.027 155.642C111.291 154.64 111.876 152.663 112.437 152.38C113.191 152.001 114.251 154.803 114.251 154.803L114.688 154.62L113.795 150.964C113.57 150.043 112.783 149.372 111.838 149.29C111.838 149.29 112.212 150.677 111.492 151.66C110.773 152.644 108.7 155.964 108.7 155.964C108.7 155.964 108.316 156.065 107.951 156.304C107.404 156.655 107.855 157.49 108.455 157.24Z" fill="url(#paint8_linear_129_3910)"/>
<path d="M97.6123 90.0509C97.6123 90.0509 97.8474 91.4854 97.5019 95.4292C97.1613 99.3731 95.5204 108.633 95.8515 117.49C95.8515 117.49 100.51 118.574 108.609 118.061C108.609 118.061 112.025 104.228 111.195 98.9749C110.365 93.7164 105.85 89.9453 105.85 89.9453L97.6123 90.0509Z" fill="url(#paint9_linear_129_3910)"/>
<path d="M101.057 63.7012L100.486 70.399H105.898L104.55 60.1748L101.057 63.7012Z" fill="url(#paint10_linear_129_3910)"/>
<path d="M107.501 69.473C105.634 69.3722 101.46 69.1803 98.4998 69.3387C96.9405 69.425 95.6403 70.5429 95.3188 72.0686L94.5992 75.5279C94.3305 76.8137 94.3689 78.1475 94.7143 79.4189L97.6122 90.0558C97.6122 90.0558 100.189 91.6055 105.845 89.9454C105.845 89.9454 110.816 78.0947 108.782 70.5189C108.623 69.9288 108.11 69.5066 107.501 69.473Z" fill="url(#paint11_linear_129_3910)"/>
<path d="M95.4628 71.4493C94.6664 73.5507 93.9467 75.7481 93.1743 77.8112C92.7808 78.8427 92.3826 79.8551 91.9556 80.7859C91.7397 81.2465 91.5046 81.6735 91.2839 82.0573C91.068 82.4411 90.8185 82.7578 90.6938 82.9017C90.6698 82.9257 90.7513 82.9401 90.7801 82.9401C90.7993 82.9401 90.2428 83.0312 90.0701 83.06L89.4031 83.0552C88.4484 83.0073 87.3689 82.8393 86.2846 82.6282C84.0967 82.2204 81.8226 81.6495 79.486 81.2129L79.4668 81.2081C79.0206 81.1265 78.5888 81.4192 78.5072 81.8654C78.4545 82.158 78.5648 82.4459 78.7711 82.633C79.7115 83.4631 80.7095 84.1443 81.7458 84.8065C82.2688 85.1231 82.7965 85.4398 83.3339 85.7372C83.8856 86.0155 84.4326 86.2986 85.0083 86.5625C86.1598 87.0662 87.3497 87.5268 88.7219 87.8243C89.0817 87.8867 89.4367 87.949 89.811 87.997C90.2284 88.0114 90.6026 88.0498 91.0584 88.021C91.2983 87.997 91.543 87.9682 91.7829 87.9346C91.9124 87.9107 92.0084 87.9107 92.1619 87.8675C92.3298 87.8195 92.493 87.7619 92.6561 87.6996C92.9967 87.5796 93.2174 87.4309 93.4957 87.2773C93.726 87.1238 93.9371 86.9655 94.1386 86.8072C94.8871 86.169 95.3525 85.5357 95.7651 84.9264C96.1729 84.3171 96.4992 83.7077 96.7918 83.1128C97.3772 81.9182 97.833 80.7379 98.2024 79.548C98.9509 77.1635 99.4594 74.8221 99.6753 72.3321C99.7761 71.1374 98.8933 70.0915 97.7034 69.9859C96.7151 69.8995 95.8275 70.4897 95.4916 71.3725L95.4628 71.4493Z" fill="url(#paint12_linear_129_3910)"/>
<path d="M80.22 82.2875L79.2556 79.9942L74.1747 78.7275C74.1747 78.7275 73.7669 79.6103 75.9019 79.9942C75.9019 79.9942 75.1391 80.8386 75.5469 81.8269C75.9499 82.8201 80.268 83.8133 80.22 82.2875Z" fill="url(#paint13_linear_129_3910)"/>
<path d="M98.764 55.9669C98.5721 56.0821 97.0464 61.4509 98.3226 63.701C99.5988 65.9512 103.495 63.4324 104.55 60.1746C105.606 56.9217 103.912 52.9347 98.764 55.9669Z" fill="url(#paint14_linear_129_3910)"/>
<path d="M108.858 60.1742C109.732 64.4539 112.625 63.2832 114.678 65.1879C118.003 68.2729 122.758 65.092 127.378 68.0187C130.713 70.1297 132.32 75.5321 130.722 79.8933C128.506 85.9338 120.925 88.4191 117 86.5815C113.248 84.8207 113.781 79.5575 108.729 77.5184C106.584 76.6548 105.529 77.2161 104.243 75.9351C101.993 73.6945 102.602 69.3429 102.837 67.6636C103.346 64.0269 104.564 63.3695 103.979 61.7671C102.847 58.6581 97.5595 59.301 97.1181 57.1036C96.7151 55.1029 100.549 51.3174 104.157 51.9123C109.736 52.8431 108.47 58.2694 108.858 60.1742Z" fill="url(#paint15_linear_129_3910)"/>
<path d="M122.896 42.4899C122.896 34.9573 129.278 28.8496 136.935 28.8496C144.367 28.8496 150.235 34.6358 150.235 41.7702C150.235 48.9046 144.367 54.9979 136.935 55.3913C129.282 55.7943 122.896 50.0225 122.896 42.4899Z" fill="url(#paint16_linear_129_3910)"/>
<path d="M124.178 42.4559C124.178 35.6286 129.964 30.0919 136.902 30.0967C143.638 30.0967 148.954 35.3407 148.954 41.8082C148.954 48.2757 143.638 53.798 136.902 54.1531C129.964 54.5129 124.178 49.2833 124.178 42.4559Z" fill="url(#paint17_linear_129_3910)"/>
<path d="M132.78 41.6794H131.638V37.1358C131.638 35.351 132.971 33.8445 134.747 33.6286L137.078 33.3455C138.081 33.2256 139.094 33.5374 139.847 34.2091C140.605 34.8808 141.037 35.8452 141.037 36.8527V40.8205H139.895V36.8527C139.895 36.1666 139.602 35.5141 139.089 35.0583C138.575 34.6025 137.894 34.3914 137.213 34.473L134.881 34.7561C133.682 34.9 132.775 35.9219 132.775 37.131V41.6794H132.78Z" fill="white"/>
<path d="M131.302 40.6624L141.301 40.1106C141.709 40.0866 142.049 40.4129 142.049 40.8159V48.7371C142.049 49.1306 141.733 49.4472 141.339 49.4472H131.585C131.201 49.4472 130.89 49.145 130.875 48.7611L130.635 41.3964C130.621 41.0078 130.918 40.6816 131.302 40.6624Z" fill="white"/>
<path d="M137.971 47.173L137.367 45.4314C137.295 45.2203 137.343 44.99 137.501 44.8317C137.813 44.5198 137.995 44.0784 137.976 43.5986C137.938 42.7494 137.242 42.0633 136.397 42.0297C135.457 41.9913 134.685 42.7446 134.685 43.6754C134.685 44.1936 134.924 44.6541 135.294 44.9564C135.486 45.1147 135.567 45.369 135.486 45.6041L134.939 47.173C134.805 47.5568 135.088 47.9551 135.495 47.9551H137.424C137.822 47.9551 138.105 47.5568 137.971 47.173Z" fill="url(#paint18_linear_129_3910)"/>
<path d="M57.2912 129.849C57.3344 129.748 57.3104 129.628 57.2336 129.551L55.017 127.349C55.2905 125.881 55.3481 124.36 55.1561 122.834L57.4975 120.795C57.5791 120.723 57.6078 120.603 57.5695 120.502L56.2788 116.904C56.2405 116.798 56.1445 116.731 56.039 116.731L52.9923 116.818C52.1767 115.537 51.1787 114.428 50.0464 113.517L50.3295 110.331C50.3391 110.221 50.2815 110.115 50.1856 110.067L46.8559 108.479C46.7599 108.431 46.6448 108.455 46.5728 108.536L44.4809 110.859C43.0848 110.566 41.6358 110.504 40.1821 110.7L38.2342 108.234C38.167 108.148 38.0518 108.114 37.9511 108.157L34.5302 109.506C34.4295 109.544 34.3671 109.645 34.3671 109.76L34.4534 112.96C33.2348 113.814 32.1841 114.86 31.3157 116.045L28.2786 115.743C28.1731 115.733 28.0723 115.796 28.0291 115.896L26.5226 119.394C26.4794 119.495 26.5034 119.615 26.5802 119.691L28.7968 121.894C28.5233 123.362 28.4657 124.883 28.6577 126.408L26.3163 128.448C26.2347 128.52 26.206 128.639 26.2443 128.74L27.535 132.339C27.5733 132.444 27.6693 132.511 27.7749 132.511L30.8215 132.425C31.6371 133.706 32.6351 134.814 33.7674 135.726L33.4843 138.912C33.4747 139.022 33.5323 139.128 33.6282 139.176L36.9579 140.764C37.0539 140.812 37.169 140.788 37.241 140.706L39.3329 138.384C40.729 138.677 42.178 138.739 43.6317 138.542L45.5796 141.008C45.6468 141.095 45.762 141.128 45.8627 141.085L49.2836 139.737C49.3843 139.698 49.4467 139.598 49.4467 139.483L49.3604 136.282C50.579 135.428 51.6297 134.382 52.4981 133.197L55.5352 133.5C55.6407 133.509 55.7415 133.447 55.7847 133.346L57.2912 129.849Z" fill="url(#paint19_linear_129_3910)"/>
<path opacity="0.7" d="M45.2011 122.906C45.9975 124.595 45.5225 126.687 44.0112 127.79C42.3463 129.004 40.053 128.563 38.8967 126.816C38.3353 125.967 38.1242 124.945 38.297 123.928C38.4697 122.916 39.007 122.033 39.8131 121.443C41.4779 120.229 43.7713 120.67 44.9276 122.417C45.0331 122.575 45.1243 122.738 45.2011 122.906ZM39.3861 125.924C39.4484 126.054 39.5204 126.178 39.5972 126.303C40.4848 127.646 42.2456 127.982 43.5218 127.051C44.798 126.121 45.1147 124.274 44.2223 122.935C43.3347 121.592 41.5739 121.256 40.2977 122.186C39.6787 122.637 39.2661 123.314 39.1318 124.091C39.031 124.72 39.1174 125.358 39.3861 125.924Z" fill="white"/>
<path opacity="0.7" d="M49.9221 120.363C50.0612 120.651 50.1812 120.953 50.2915 121.26C50.3251 121.356 50.3587 121.452 50.3923 121.553C50.5506 122.033 50.6658 122.527 50.7473 123.026C50.7473 123.031 50.7473 123.04 50.7521 123.045C50.7569 123.064 50.7569 123.083 50.7617 123.103C50.7665 123.141 50.7713 123.179 50.7761 123.218C50.7905 123.318 50.7425 123.41 50.661 123.453C50.6418 123.462 50.6178 123.472 50.5986 123.472C50.4834 123.491 50.3731 123.405 50.3539 123.28C50.2627 122.647 50.1092 122.018 49.8933 121.418C48.8186 118.42 46.3765 116.366 43.5937 115.747C42.044 115.402 40.3888 115.503 38.8007 116.126C38.5224 116.237 38.2489 116.362 37.9899 116.496C36.2195 117.417 34.8233 118.933 33.9981 120.848C33.0529 123.045 32.9761 125.501 33.787 127.761C35.4662 132.43 40.4416 134.804 44.8796 133.053C45.153 132.948 45.4217 132.823 45.6808 132.689C46.8083 132.103 47.8015 131.264 48.5835 130.227C48.6027 130.199 48.6267 130.179 48.6555 130.165C48.7274 130.127 48.8186 130.136 48.8858 130.189C48.9769 130.266 48.9961 130.41 48.9194 130.506C48.0989 131.595 47.0578 132.478 45.8727 133.092C45.5992 133.236 45.321 133.36 45.0331 133.475C40.3696 135.313 35.1447 132.818 33.3887 127.92C32.5347 125.545 32.6163 122.968 33.6094 120.66C34.473 118.65 35.946 117.057 37.8027 116.093C38.0762 115.949 38.3641 115.819 38.6568 115.704C40.9165 114.817 43.3682 114.903 45.5705 115.954C47.4752 116.861 48.9961 118.41 49.9221 120.363Z" fill="white"/>
<path d="M74.9519 146.368C74.9807 146.301 74.9663 146.219 74.9136 146.167L73.431 144.694C73.6133 143.715 73.6517 142.693 73.5222 141.671L75.0911 140.308C75.1438 140.26 75.1678 140.184 75.1391 140.112L74.2754 137.703C74.2514 137.631 74.1843 137.588 74.1123 137.588L72.0732 137.646C71.5263 136.792 70.8594 136.048 70.1013 135.439L70.2884 133.304C70.2932 133.227 70.2548 133.16 70.1925 133.126L67.9615 132.061C67.8943 132.032 67.8175 132.047 67.7696 132.099L66.3686 133.654C65.433 133.457 64.4639 133.419 63.4899 133.548L62.1897 131.898C62.1417 131.84 62.0697 131.821 62.0026 131.845L59.714 132.747C59.6468 132.771 59.6036 132.843 59.6036 132.915L59.6612 135.055C58.8456 135.626 58.1403 136.326 57.5646 137.118L55.5351 136.916C55.4631 136.912 55.3959 136.95 55.3671 137.017L54.3596 139.358C54.3308 139.426 54.3452 139.507 54.398 139.56L55.8805 141.033C55.6982 142.012 55.6598 143.034 55.7893 144.056L54.2204 145.418C54.1677 145.466 54.1437 145.543 54.1725 145.615L55.0361 148.023C55.0601 148.095 55.1272 148.139 55.1992 148.139L57.2383 148.081C57.7852 148.935 58.4521 149.679 59.2102 150.288L59.0231 152.418C59.0183 152.495 59.0567 152.562 59.119 152.596L61.35 153.661C61.4172 153.69 61.494 153.675 61.542 153.622L62.9429 152.068C63.8785 152.265 64.8477 152.303 65.8216 152.174L67.1219 153.824C67.1698 153.882 67.2418 153.901 67.309 153.877L69.5975 152.975C69.6647 152.951 69.7079 152.879 69.7079 152.807L69.6503 150.667C70.4659 150.096 71.1712 149.396 71.747 148.604L73.7765 148.805C73.8484 148.81 73.9156 148.772 73.9444 148.705L74.9519 146.368Z" fill="url(#paint20_linear_129_3910)"/>
<path opacity="0.7" d="M66.9014 141.705C67.1413 142.208 67.218 142.775 67.1221 143.336C67.0021 144.027 66.6375 144.626 66.0857 145.029C64.9534 145.855 63.3893 145.557 62.6025 144.367C61.8157 143.173 62.0939 141.532 63.2262 140.707C63.7732 140.308 64.4401 140.155 65.0974 140.28C65.7547 140.404 66.3304 140.793 66.7095 141.369C66.7862 141.474 66.8486 141.589 66.9014 141.705ZM63.0103 143.72C63.0487 143.801 63.0967 143.883 63.1494 143.964C63.73 144.842 64.8815 145.058 65.7115 144.454C66.1145 144.161 66.3832 143.72 66.4696 143.211C66.5559 142.703 66.4504 142.189 66.1673 141.762C65.8842 141.335 65.4668 141.052 64.9822 140.961C64.4976 140.87 64.0083 140.98 63.6052 141.273C62.8472 141.829 62.6121 142.875 63.0103 143.72Z" fill="white"/>
<path opacity="0.7" d="M70.1875 139.939C70.2787 140.136 70.365 140.342 70.4418 140.549C70.5905 140.966 70.7009 141.398 70.768 141.839C70.7728 141.858 70.7728 141.878 70.7776 141.897C70.8016 142.05 70.7249 142.194 70.6001 142.257C70.5713 142.271 70.5377 142.285 70.4994 142.29C70.317 142.319 70.1491 142.185 70.1251 141.998C70.0675 141.585 69.9668 141.182 69.8277 140.793C69.8181 140.774 69.8133 140.75 69.8037 140.731C69.463 139.81 68.9209 139.013 68.2204 138.394C67.8414 138.059 67.4143 137.771 66.9538 137.545C66.949 137.545 66.9442 137.54 66.9442 137.54C66.9346 137.536 66.9202 137.531 66.9106 137.526C65.5528 136.878 64.0415 136.826 62.6453 137.373C62.463 137.444 62.2902 137.521 62.1175 137.612C60.9708 138.207 60.0688 139.191 59.5315 140.429C58.9174 141.854 58.8694 143.442 59.3971 144.905C59.9249 146.368 60.9612 147.53 62.3142 148.177C63.672 148.825 65.1833 148.878 66.5795 148.331C66.757 148.259 66.9298 148.182 67.0977 148.096C67.827 147.717 68.4699 147.17 68.9784 146.503C69.012 146.46 69.0456 146.431 69.0888 146.407C69.1991 146.349 69.3383 146.359 69.4438 146.445C69.5878 146.565 69.6118 146.781 69.4966 146.935C68.9305 147.683 68.2108 148.292 67.3951 148.719C67.208 148.815 67.0113 148.907 66.8146 148.983C65.2553 149.597 63.5617 149.535 62.0456 148.811C60.5294 148.086 59.3684 146.786 58.783 145.15C58.1929 143.514 58.2505 141.734 58.9366 140.141C59.5315 138.754 60.5486 137.656 61.8297 136.989C62.0216 136.888 62.2183 136.802 62.4198 136.72C65.4232 135.525 68.7817 136.965 70.1875 139.939Z" fill="white"/>
</g>
<defs>
<linearGradient id="paint0_linear_129_3910" x1="197.224" y1="226.267" x2="44.0687" y2="36.0578" gradientUnits="userSpaceOnUse">
<stop stop-color="#EBFAF7"/>
<stop offset="1" stop-color="#E9EFFD"/>
</linearGradient>
<linearGradient id="paint1_linear_129_3910" x1="112.327" y1="21.1274" x2="-32.9945" y2="284.782" gradientUnits="userSpaceOnUse">
<stop stop-color="#353538"/>
<stop offset="1" stop-color="#323232"/>
</linearGradient>
<linearGradient id="paint2_linear_129_3910" x1="68.7318" y1="-54.4087" x2="73.6976" y2="-3.75726" gradientUnits="userSpaceOnUse">
<stop stop-color="#7F7DF4"/>
<stop offset="1" stop-color="#7F7DF4"/>
</linearGradient>
<linearGradient id="paint3_linear_129_3910" x1="58.0185" y1="54.2513" x2="90.1165" y2="54.2513" gradientUnits="userSpaceOnUse">
<stop stop-color="#4F52FF"/>
<stop offset="1" stop-color="#4042E2"/>
</linearGradient>
<linearGradient id="paint4_linear_129_3910" x1="116.079" y1="155.483" x2="98.1065" y2="109.214" gradientUnits="userSpaceOnUse">
<stop stop-color="#FEBBBA"/>
<stop offset="1" stop-color="#FF928E"/>
</linearGradient>
<linearGradient id="paint5_linear_129_3910" x1="116.352" y1="304.309" x2="56.9487" y2="-389.968" gradientUnits="userSpaceOnUse">
<stop stop-color="#FEBBBA"/>
<stop offset="1" stop-color="#FF928E"/>
</linearGradient>
<linearGradient id="paint6_linear_129_3910" x1="114.217" y1="82.2855" x2="106.599" y2="82.2855" gradientUnits="userSpaceOnUse">
<stop stop-color="#FEBBBA"/>
<stop offset="1" stop-color="#FF928E"/>
</linearGradient>
<linearGradient id="paint7_linear_129_3910" x1="101.036" y1="156.795" x2="82.9131" y2="128.99" gradientUnits="userSpaceOnUse">
<stop stop-color="#4F52FF"/>
<stop offset="1" stop-color="#4042E2"/>
</linearGradient>
<linearGradient id="paint8_linear_129_3910" x1="117.364" y1="165.263" x2="97.2555" y2="130.507" gradientUnits="userSpaceOnUse">
<stop stop-color="#4F52FF"/>
<stop offset="1" stop-color="#4042E2"/>
</linearGradient>
<linearGradient id="paint9_linear_129_3910" x1="120.388" y1="80.6619" x2="104.499" y2="102.178" gradientUnits="userSpaceOnUse">
<stop stop-color="#4F52FF"/>
<stop offset="1" stop-color="#4042E2"/>
</linearGradient>
<linearGradient id="paint10_linear_129_3910" x1="105.897" y1="65.2879" x2="100.486" y2="65.2879" gradientUnits="userSpaceOnUse">
<stop stop-color="#FEBBBA"/>
<stop offset="1" stop-color="#FF928E"/>
</linearGradient>
<linearGradient id="paint11_linear_129_3910" x1="168.774" y1="57.7109" x2="146.595" y2="64.9935" gradientUnits="userSpaceOnUse">
<stop stop-color="#FD5D65"/>
<stop offset="1" stop-color="#FD565F"/>
</linearGradient>
<linearGradient id="paint12_linear_129_3910" x1="74.1513" y1="68.3723" x2="120.948" y2="95.181" gradientUnits="userSpaceOnUse">
<stop stop-color="#FEBBBA"/>
<stop offset="1" stop-color="#FF928E"/>
</linearGradient>
<linearGradient id="paint13_linear_129_3910" x1="69.5014" y1="76.4887" x2="116.298" y2="103.297" gradientUnits="userSpaceOnUse">
<stop stop-color="#FEBBBA"/>
<stop offset="1" stop-color="#FF928E"/>
</linearGradient>
<linearGradient id="paint14_linear_129_3910" x1="96.8852" y1="65.2856" x2="107.4" y2="49.9106" gradientUnits="userSpaceOnUse">
<stop stop-color="#FEBBBA"/>
<stop offset="1" stop-color="#FF928E"/>
</linearGradient>
<linearGradient id="paint15_linear_129_3910" x1="102.454" y1="54.3002" x2="117.349" y2="73.6642" gradientUnits="userSpaceOnUse">
<stop stop-color="#3F005D"/>
<stop offset="1" stop-color="#5B0433"/>
</linearGradient>
<linearGradient id="paint16_linear_129_3910" x1="148.343" y1="-1.36393" x2="127.365" y2="76.0936" gradientUnits="userSpaceOnUse">
<stop stop-color="#E1473D"/>
<stop offset="1" stop-color="#E9605A"/>
</linearGradient>
<linearGradient id="paint17_linear_129_3910" x1="144.809" y1="17.603" x2="131.899" y2="56.0017" gradientUnits="userSpaceOnUse">
<stop stop-color="#FF928E"/>
<stop offset="1" stop-color="#FE7062"/>
</linearGradient>
<linearGradient id="paint18_linear_129_3910" x1="140.267" y1="7.39494" x2="134.35" y2="64.8187" gradientUnits="userSpaceOnUse">
<stop stop-color="#FF928E"/>
<stop offset="1" stop-color="#FE7062"/>
</linearGradient>
<linearGradient id="paint19_linear_129_3910" x1="45.9018" y1="110.008" x2="34.2338" y2="152.708" gradientUnits="userSpaceOnUse">
<stop stop-color="#FF8288"/>
<stop offset="1" stop-color="#FD5D65"/>
</linearGradient>
<linearGradient id="paint20_linear_129_3910" x1="69.6722" y1="126.012" x2="58.0042" y2="165.236" gradientUnits="userSpaceOnUse">
<stop stop-color="#FE737A"/>
<stop offset="1" stop-color="#FE7062"/>
</linearGradient>
<clipPath id="clip0_129_3910">
<rect width="178" height="178" fill="white"/>
</clipPath>
</defs>
</svg>
