<svg width="24" height="24" viewBox="0 0 24 24" fill="none" xmlns="http://www.w3.org/2000/svg">
<path d="M10 2.75H14C15.9068 2.75 17.2615 2.75159 18.2892 2.88976C19.2952 3.02502 19.8749 3.27869 20.2981 3.7019C20.7213 4.12511 20.975 4.70476 21.1102 5.71085C21.2484 6.73851 21.25 8.09318 21.25 10V14C21.25 15.9068 21.2484 17.2615 21.1102 18.2892C20.975 19.2952 20.7213 19.8749 20.2981 20.2981C19.8749 20.7213 19.2952 20.975 18.2892 21.1102C17.2615 21.2484 15.9068 21.25 14 21.25H10C8.09318 21.25 6.73851 21.2484 5.71085 21.1102C4.70476 20.975 4.12511 20.7213 3.7019 20.2981C3.27869 19.8749 3.02502 19.2952 2.88976 18.2892C2.75159 17.2615 2.75 15.9068 2.75 14V10C2.75 8.09318 2.75159 6.73851 2.88976 5.71085C3.02502 4.70476 3.27869 4.12511 3.7019 3.7019C4.12511 3.27869 4.70476 3.02502 5.71085 2.88976C6.73851 2.75159 8.09318 2.75 10 2.75Z" stroke="black" stroke-width="1.5"/>
<path d="M12 8L12 16" stroke="black" stroke-width="1.5" stroke-linecap="round" stroke-linejoin="round"/>
<path d="M16 12L8 12" stroke="black" stroke-width="1.5" stroke-linecap="round" stroke-linejoin="round"/>
</svg>
