<svg width="25" height="24" viewBox="0 0 25 24" fill="none" xmlns="http://www.w3.org/2000/svg">
<path d="M2.5 13.4375C2.5 9.66626 2.5 7.78065 3.67157 6.60907C4.84315 5.4375 6.72876 5.4375 10.5 5.4375H14.5C18.2712 5.4375 20.1569 5.4375 21.3284 6.60907C22.5 7.78065 22.5 9.66626 22.5 13.4375C22.5 17.2087 22.5 19.0944 21.3284 20.2659C20.1569 21.4375 18.2712 21.4375 14.5 21.4375H10.5C6.72876 21.4375 4.84315 21.4375 3.67157 20.2659C2.5 19.0944 2.5 17.2087 2.5 13.4375Z" stroke="#323232" stroke-width="2"/>
<path opacity="0.5" d="M4.48828 6C4.60071 5.06898 4.83543 4.42559 5.32547 3.93726C6.26602 3 7.77981 3 10.8074 3H14.0186C17.0462 3 18.56 3 19.5005 3.93726C19.9906 4.42559 20.2253 5.06898 20.3377 6" stroke="#323232" stroke-width="2"/>
<path opacity="0.5" d="M18 11.4375C18.8284 11.4375 19.5 10.7659 19.5 9.9375C19.5 9.10907 18.8284 8.4375 18 8.4375C17.1716 8.4375 16.5 9.10907 16.5 9.9375C16.5 10.7659 17.1716 11.4375 18 11.4375Z" stroke="#323232" stroke-width="2"/>
<path opacity="0.5" d="M2.5 13.9376L4.25159 12.405C5.16286 11.6077 6.53628 11.6534 7.39249 12.5096L11.6822 16.7993C12.3694 17.4866 13.4512 17.5803 14.2464 17.0214L14.5446 16.8119C15.6888 16.0077 17.2369 16.1009 18.2765 17.0365L21.5 19.9376" stroke="#323232" stroke-width="2" stroke-linecap="round"/>
</svg>
