<svg width="280" height="280" viewBox="0 0 280 280" fill="none" xmlns="http://www.w3.org/2000/svg">
<path d="M140 60C130.111 60 120.444 62.9325 112.222 68.4265C103.999 73.9206 97.5905 81.7295 93.8062 90.8658C90.0218 100.002 89.0316 110.055 90.9609 119.755C92.8901 129.454 97.6522 138.363 104.645 145.355C111.637 152.348 120.547 157.11 130.246 159.039C139.945 160.969 149.998 159.978 159.134 156.194C168.271 152.41 176.08 146.001 181.574 137.779C187.068 129.556 190 119.889 190 110C190 96.7392 184.732 84.0215 175.355 74.6447C165.979 65.2678 153.261 60 140 60Z" fill="black"/>
<path d="M140 0C112.311 0 85.2431 8.21086 62.2202 23.5943C39.1973 38.9777 21.2532 60.8427 10.6569 86.4243C0.0606596 112.006 -2.71181 140.155 2.69012 167.313C8.09205 194.47 21.4258 219.416 41.0051 238.995C60.5845 258.574 85.5301 271.908 112.687 277.31C139.845 282.712 167.994 279.939 193.576 269.343C219.157 258.747 241.022 240.803 256.406 217.78C271.789 194.757 280 167.689 280 140C279.958 102.883 265.194 67.2977 238.948 41.0518C212.702 14.8059 177.117 0.0423472 140 0ZM219.92 229.26C219.721 216.143 214.377 203.63 205.039 194.416C195.702 185.202 183.118 180.025 170 180H110C96.8819 180.025 84.2984 185.202 74.961 194.416C65.6235 203.63 60.2794 216.143 60.0801 229.26C41.9457 213.067 29.1574 191.749 23.4084 168.127C17.6594 144.505 19.2211 119.693 27.8864 96.9786C36.5518 74.2637 51.9123 54.7167 71.9338 40.9257C91.9553 27.1347 115.693 19.7503 140.005 19.7503C164.317 19.7503 188.055 27.1347 208.076 40.9257C228.098 54.7167 243.458 74.2637 252.124 96.9786C260.789 119.693 262.351 144.505 256.602 168.127C250.853 191.749 238.054 213.067 219.92 229.26Z" fill="black"/>
</svg>
