<svg width="24" height="24" viewBox="0 0 24 24" fill="none" xmlns="http://www.w3.org/2000/svg">
<path d="M20.3721 20H3.62791C3.28465 20 3 20.2267 3 20.5C3 20.7733 3.28465 21 3.62791 21H20.3721C20.7153 21 21 20.7733 21 20.5C21 20.2267 20.7153 20 20.3721 20Z" fill="#919DB8"/>
<path d="M15.8889 4H8.11111C5.77778 4 5 5.432 5 7.2V20H19V7.2C19 5.432 18.2222 4 15.8889 4ZM10.4444 16.2H8.11111C7.79222 16.2 7.52778 15.928 7.52778 15.6C7.52778 15.272 7.79222 15 8.11111 15H10.4444C10.7633 15 11.0278 15.272 11.0278 15.6C11.0278 15.928 10.7633 16.2 10.4444 16.2ZM10.4444 12.6H8.11111C7.79222 12.6 7.52778 12.328 7.52778 12C7.52778 11.672 7.79222 11.4 8.11111 11.4H10.4444C10.7633 11.4 11.0278 11.672 11.0278 12C11.0278 12.328 10.7633 12.6 10.4444 12.6ZM10.4444 9H8.11111C7.79222 9 7.52778 8.728 7.52778 8.4C7.52778 8.072 7.79222 7.8 8.11111 7.8H10.4444C10.7633 7.8 11.0278 8.072 11.0278 8.4C11.0278 8.728 10.7633 9 10.4444 9ZM15.8889 16.2H13.5556C13.2367 16.2 12.9722 15.928 12.9722 15.6C12.9722 15.272 13.2367 15 13.5556 15H15.8889C16.2078 15 16.4722 15.272 16.4722 15.6C16.4722 15.928 16.2078 16.2 15.8889 16.2ZM15.8889 12.6H13.5556C13.2367 12.6 12.9722 12.328 12.9722 12C12.9722 11.672 13.2367 11.4 13.5556 11.4H15.8889C16.2078 11.4 16.4722 11.672 16.4722 12C16.4722 12.328 16.2078 12.6 15.8889 12.6ZM15.8889 9H13.5556C13.2367 9 12.9722 8.728 12.9722 8.4C12.9722 8.072 13.2367 7.8 13.5556 7.8H15.8889C16.2078 7.8 16.4722 8.072 16.4722 8.4C16.4722 8.728 16.2078 9 15.8889 9Z" fill="#919DB8"/>
</svg>
