<svg width="84" height="84" viewBox="0 0 84 84" fill="none" xmlns="http://www.w3.org/2000/svg">
<g filter="url(#filter0_d_129_4870)">
<path fill-rule="evenodd" clip-rule="evenodd" d="M42 8C23.2223 8 8 23.2223 8 42C8 60.7777 23.2223 76 42 76C60.7777 76 76 60.7777 76 42C76 23.2223 60.7777 8 42 8ZM4 42C4 21.0132 21.0132 4 42 4C62.9868 4 80 21.0132 80 42C80 62.9868 62.9868 80 42 80C21.0132 80 4 62.9868 4 42Z" fill="white"/>
</g>
<g filter="url(#filter1_d_129_4870)">
<rect x="20" y="29" width="44" height="4" rx="2" fill="white"/>
</g>
<g filter="url(#filter2_d_129_4870)">
<rect x="20" y="51" width="44" height="4" rx="2" fill="white"/>
</g>
<g filter="url(#filter3_d_129_4870)">
<path d="M41.9989 28.0101C41.9989 27.9957 41.9989 27.9841 41.9989 27.9696C41.9989 25.3763 40.0551 23 37.1305 23C34.8058 23 33.4589 24.6122 33 26.1201C32.5411 24.6122 31.1942 23 28.8695 23C25.9449 23 24.0011 25.3763 24.0011 27.9696C24.0011 27.9841 24.0011 27.9957 24.0011 28.0101C23.9861 28.5745 24.0011 34.3169 32.997 39C41.9989 34.3198 42.0139 28.5745 41.9989 28.0101Z" fill="white"/>
</g>
<g filter="url(#filter4_d_129_4870)">
<path d="M59.999 50.0101C59.999 49.9957 59.999 49.9841 59.999 49.9696C59.999 47.3763 58.1632 45 55.401 45C53.2055 45 51.9334 46.6122 51.5 48.1201C51.0666 46.6122 49.7945 45 47.599 45C44.8368 45 43.001 47.3763 43.001 49.9696C43.001 49.9841 43.001 49.9957 43.001 50.0101C42.9869 50.5745 43.001 56.3169 51.4972 61C59.999 56.3198 60.0131 50.5745 59.999 50.0101Z" fill="white"/>
</g>
<defs>
<filter id="filter0_d_129_4870" x="0" y="0" width="84" height="84" filterUnits="userSpaceOnUse" color-interpolation-filters="sRGB">
<feFlood flood-opacity="0" result="BackgroundImageFix"/>
<feColorMatrix in="SourceAlpha" type="matrix" values="0 0 0 0 0 0 0 0 0 0 0 0 0 0 0 0 0 0 127 0" result="hardAlpha"/>
<feOffset/>
<feGaussianBlur stdDeviation="2"/>
<feComposite in2="hardAlpha" operator="out"/>
<feColorMatrix type="matrix" values="0 0 0 0 0 0 0 0 0 0 0 0 0 0 0 0 0 0 0.25 0"/>
<feBlend mode="normal" in2="BackgroundImageFix" result="effect1_dropShadow_129_4870"/>
<feBlend mode="normal" in="SourceGraphic" in2="effect1_dropShadow_129_4870" result="shape"/>
</filter>
<filter id="filter1_d_129_4870" x="16" y="25" width="52" height="12" filterUnits="userSpaceOnUse" color-interpolation-filters="sRGB">
<feFlood flood-opacity="0" result="BackgroundImageFix"/>
<feColorMatrix in="SourceAlpha" type="matrix" values="0 0 0 0 0 0 0 0 0 0 0 0 0 0 0 0 0 0 127 0" result="hardAlpha"/>
<feOffset/>
<feGaussianBlur stdDeviation="2"/>
<feComposite in2="hardAlpha" operator="out"/>
<feColorMatrix type="matrix" values="0 0 0 0 0 0 0 0 0 0 0 0 0 0 0 0 0 0 0.25 0"/>
<feBlend mode="normal" in2="BackgroundImageFix" result="effect1_dropShadow_129_4870"/>
<feBlend mode="normal" in="SourceGraphic" in2="effect1_dropShadow_129_4870" result="shape"/>
</filter>
<filter id="filter2_d_129_4870" x="16" y="47" width="52" height="12" filterUnits="userSpaceOnUse" color-interpolation-filters="sRGB">
<feFlood flood-opacity="0" result="BackgroundImageFix"/>
<feColorMatrix in="SourceAlpha" type="matrix" values="0 0 0 0 0 0 0 0 0 0 0 0 0 0 0 0 0 0 127 0" result="hardAlpha"/>
<feOffset/>
<feGaussianBlur stdDeviation="2"/>
<feComposite in2="hardAlpha" operator="out"/>
<feColorMatrix type="matrix" values="0 0 0 0 0 0 0 0 0 0 0 0 0 0 0 0 0 0 0.25 0"/>
<feBlend mode="normal" in2="BackgroundImageFix" result="effect1_dropShadow_129_4870"/>
<feBlend mode="normal" in="SourceGraphic" in2="effect1_dropShadow_129_4870" result="shape"/>
</filter>
<filter id="filter3_d_129_4870" x="20" y="19" width="26" height="24" filterUnits="userSpaceOnUse" color-interpolation-filters="sRGB">
<feFlood flood-opacity="0" result="BackgroundImageFix"/>
<feColorMatrix in="SourceAlpha" type="matrix" values="0 0 0 0 0 0 0 0 0 0 0 0 0 0 0 0 0 0 127 0" result="hardAlpha"/>
<feOffset/>
<feGaussianBlur stdDeviation="2"/>
<feComposite in2="hardAlpha" operator="out"/>
<feColorMatrix type="matrix" values="0 0 0 0 0 0 0 0 0 0 0 0 0 0 0 0 0 0 0.25 0"/>
<feBlend mode="normal" in2="BackgroundImageFix" result="effect1_dropShadow_129_4870"/>
<feBlend mode="normal" in="SourceGraphic" in2="effect1_dropShadow_129_4870" result="shape"/>
</filter>
<filter id="filter4_d_129_4870" x="39" y="41" width="25" height="24" filterUnits="userSpaceOnUse" color-interpolation-filters="sRGB">
<feFlood flood-opacity="0" result="BackgroundImageFix"/>
<feColorMatrix in="SourceAlpha" type="matrix" values="0 0 0 0 0 0 0 0 0 0 0 0 0 0 0 0 0 0 127 0" result="hardAlpha"/>
<feOffset/>
<feGaussianBlur stdDeviation="2"/>
<feComposite in2="hardAlpha" operator="out"/>
<feColorMatrix type="matrix" values="0 0 0 0 0 0 0 0 0 0 0 0 0 0 0 0 0 0 0.25 0"/>
<feBlend mode="normal" in2="BackgroundImageFix" result="effect1_dropShadow_129_4870"/>
<feBlend mode="normal" in="SourceGraphic" in2="effect1_dropShadow_129_4870" result="shape"/>
</filter>
</defs>
</svg>
