<svg width="24" height="24" viewBox="0 0 24 24" fill="none" xmlns="http://www.w3.org/2000/svg">
<path fill-rule="evenodd" clip-rule="evenodd" d="M20 12C20 16.4183 16.4183 20 12 20C7.58172 20 4 16.4183 4 12C4 7.58172 7.58172 4 12 4C16.4183 4 20 7.58172 20 12ZM7.73734 16.2627C7.34681 15.8721 7.34681 15.239 7.73734 14.8484L10.5858 12L7.73734 9.15155C7.34681 8.76103 7.34681 8.12786 7.73734 7.73734C8.12786 7.34681 8.76103 7.34681 9.15155 7.73734L12 10.5858L14.8484 7.73734C15.239 7.34681 15.8721 7.34681 16.2627 7.73734C16.6532 8.12786 16.6532 8.76103 16.2627 9.15155L13.4142 12L16.2627 14.8484C16.6532 15.239 16.6532 15.8721 16.2627 16.2627C15.8721 16.6532 15.239 16.6532 14.8484 16.2627L12 13.4142L9.15155 16.2627C8.76103 16.6532 8.12786 16.6532 7.73734 16.2627Z" fill="#919DB8"/>
</svg>
