<svg width="36" height="36" viewBox="0 0 36 36" fill="none" xmlns="http://www.w3.org/2000/svg">
<path fill-rule="evenodd" clip-rule="evenodd" d="M18.0834 31.9018C20.1115 30.8182 28.831 25.6487 28.831 16.8633C28.831 10.3114 23.832 5 17.6655 5C11.499 5 6.5 10.3114 6.5 16.8633C6.5 25.6487 15.2195 30.8182 17.2476 31.9018C17.5131 32.0436 17.818 32.0436 18.0834 31.9018ZM17.6655 20.9507C20.3083 20.9507 22.4507 18.8083 22.4507 16.1655C22.4507 13.5227 20.3083 11.3803 17.6655 11.3803C15.0227 11.3803 12.8803 13.5227 12.8803 16.1655C12.8803 18.8083 15.0227 20.9507 17.6655 20.9507Z" fill="#FD5D65"/>
</svg>
