<svg width="24" height="24" viewBox="0 0 24 24" fill="none" xmlns="http://www.w3.org/2000/svg">
<path d="M12 10C14.2091 10 16 8.20914 16 6C16 3.79086 14.2091 2 12 2C9.79086 2 8 3.79086 8 6C8 8.20914 9.79086 10 12 10Z" stroke="#323232" stroke-width="2"/>
<path opacity="0.5" d="M20 17.5C20 19.9853 20 22 12 22C4 22 4 19.9853 4 17.5C4 15.0147 7.58172 13 12 13C16.4183 13 20 15.0147 20 17.5Z" stroke="#323232" stroke-width="2"/>
<path fill-rule="evenodd" clip-rule="evenodd" d="M17.2929 17.2929C17.6834 16.9024 18.3166 16.9024 18.7071 17.2929L20.5 19.0858L22.2929 17.2929C22.6834 16.9024 23.3166 16.9024 23.7071 17.2929C24.0976 17.6834 24.0976 18.3166 23.7071 18.7071L21.9142 20.5L23.7071 22.2929C24.0976 22.6834 24.0976 23.3166 23.7071 23.7071C23.3166 24.0976 22.6834 24.0976 22.2929 23.7071L20.5 21.9142L18.7071 23.7071C18.3166 24.0976 17.6834 24.0976 17.2929 23.7071C16.9024 23.3166 16.9024 22.6834 17.2929 22.2929L19.0858 20.5L17.2929 18.7071C16.9024 18.3166 16.9024 17.6834 17.2929 17.2929Z" fill="#323232"/>
</svg>
