<svg width="24" height="25" viewBox="0 0 24 25" fill="none" xmlns="http://www.w3.org/2000/svg">
<path opacity="0.5" d="M12 22.5V20.5" stroke="#323232" stroke-width="2" stroke-linecap="round"/>
<path d="M4 17.0623C5.88838 19.1722 8.63263 20.5 11.687 20.5C17.3827 20.5 22 15.8827 22 10.187C22 7.13263 20.6722 4.38838 18.5623 2.5" stroke="#323232" stroke-width="2" stroke-linecap="round"/>
<path opacity="0.5" d="M7 5.05263C7.58518 5.60525 8.79066 7.11576 8.93111 8.7368C9.06238 10.252 10.0268 11.4832 11.5 11.4999C12.0662 11.5063 12.6388 11.0822 12.6373 10.495C12.6368 10.3135 12.6079 10.1278 12.5627 9.95703C12.4998 9.71948 12.4942 9.44619 12.625 9.16662C13.0824 8.18861 13.982 7.92589 14.6949 7.39475C15.0111 7.15918 15.2995 6.91067 15.4266 6.7105C15.7777 6.15788 16.1289 5.05263 15.9533 4.5M13.291 17.5C13.0714 17.0862 12.764 16.0103 13.291 15.0172C13.9497 13.7759 16.1455 13.7759 16.1455 13.7759C17.837 13.7582 18.4469 12.9944 18.7334 12.3136M19 10.5C19 14.366 15.866 17.5 12 17.5C8.13401 17.5 5 14.366 5 10.5C5 6.63401 8.13401 3.5 12 3.5C15.866 3.5 19 6.63401 19 10.5Z" stroke="#323232" stroke-width="2"/>
<path d="M10 22.5H14" stroke="#323232" stroke-width="2" stroke-linecap="round"/>
</svg>
