<svg width="24" height="24" viewBox="0 0 24 24" fill="none" xmlns="http://www.w3.org/2000/svg">
<path d="M7.91236 12.1406C8.47881 12.1406 8.938 11.4046 8.938 10.4966C8.938 9.5886 8.47881 8.85254 7.91236 8.85254C7.34591 8.85254 6.88672 9.5886 6.88672 10.4966C6.88672 11.4046 7.34591 12.1406 7.91236 12.1406Z" fill="black"/>
<path d="M15.8762 12.1406C16.4427 12.1406 16.9019 11.4046 16.9019 10.4966C16.9019 9.5886 16.4427 8.85254 15.8762 8.85254C15.3098 8.85254 14.8506 9.5886 14.8506 10.4966C14.8506 11.4046 15.3098 12.1406 15.8762 12.1406Z" fill="black"/>
<path fill-rule="evenodd" clip-rule="evenodd" d="M16.6031 13.6489C16.8697 13.7671 16.99 14.0789 16.8719 14.3454C16.1697 15.9298 14.1616 16.9521 11.9549 16.9521C9.83704 16.9521 7.91439 16.0076 7.13071 14.5471C6.99286 14.2902 7.08937 13.9701 7.34628 13.8323C7.60318 13.6944 7.92319 13.791 8.06105 14.0479C8.60466 15.061 10.0908 15.8963 11.9549 15.8963C13.911 15.8963 15.4323 14.9879 15.9066 13.9177C16.0247 13.6511 16.3366 13.5308 16.6031 13.6489Z" fill="black" stroke="black" stroke-width="0.5" stroke-miterlimit="10" stroke-linecap="round"/>
<path fill-rule="evenodd" clip-rule="evenodd" d="M15.2672 14.8028C15.5291 14.6747 15.8452 14.7833 15.9733 15.0452C16.3429 15.8013 16.4931 16.6041 16.4098 17.3109C16.3269 18.0144 15.9999 18.6813 15.3586 19.0292L15.3581 19.0294C14.6926 19.3894 13.9276 19.2761 13.2794 18.9286C12.6278 18.5793 12.0309 17.9673 11.6119 17.1892C11.5209 17.0248 11.4506 16.8489 11.394 16.7073C11.3923 16.7031 11.3906 16.699 11.389 16.6948C11.2807 16.4241 11.4124 16.1169 11.6831 16.0086C11.9538 15.9003 12.261 16.032 12.3693 16.3027C12.4321 16.4598 12.4804 16.5785 12.5367 16.6798L12.5384 16.683L12.5402 16.6862C12.8752 17.3094 13.3334 17.7596 13.7782 17.9981C14.2272 18.2387 14.6009 18.2386 14.8555 18.1009C15.1039 17.9661 15.3046 17.6678 15.3613 17.1874C15.4175 16.7102 15.3188 16.1103 15.0248 15.5089C14.8967 15.247 15.0052 14.9308 15.2672 14.8028Z" fill="black" stroke="black" stroke-width="0.5" stroke-miterlimit="10" stroke-linecap="round"/>
<path fill-rule="evenodd" clip-rule="evenodd" d="M12 2.75C6.33908 2.75 1.75 7.33908 1.75 13C1.75 18.6609 6.33908 23.25 12 23.25C17.6609 23.25 22.25 18.6609 22.25 13C22.25 7.33908 17.6609 2.75 12 2.75ZM3.15498 13C3.15498 8.11503 7.11503 4.15498 12 4.15498C16.885 4.15498 20.845 8.11503 20.845 13C20.845 17.885 16.885 21.845 12 21.845C7.11503 21.845 3.15498 17.885 3.15498 13Z" fill="black"/>
</svg>
