<svg width="24" height="24" viewBox="0 0 24 24" fill="none" xmlns="http://www.w3.org/2000/svg">
<path d="M22 5.81399V6.50399C22 7.54199 22 8.06099 21.74 8.49099C21.48 8.92099 21.007 9.18799 20.058 9.72199L17.145 11.362C16.509 11.72 16.19 11.9 15.963 12.097C15.5056 12.4797 15.1889 13.004 15.063 13.587C15 13.872 15 14.206 15 14.873V17.543C15 19.452 15 20.406 14.332 20.824C13.664 21.242 12.725 20.874 10.846 20.14C9.951 19.79 9.504 19.616 9.252 19.261C9 18.907 9 18.451 9 17.542V14.872C9 14.206 9 13.872 8.936 13.587C8.81068 13.0043 8.49469 12.48 8.038 12.097C7.81 11.9 7.491 11.72 6.855 11.362L3.942 9.72199C2.993 9.18799 2.519 8.92199 2.26 8.49199C2 8.05999 2 7.54099 2 6.50299V5.81299" stroke="black" stroke-width="1.5"/>
<path opacity="0.5" d="M22 5.815C22 4.488 22 3.825 21.56 3.412C21.122 3 20.415 3 19 3H5C3.586 3 2.879 3 2.44 3.412C2 3.824 2 4.488 2 5.815" stroke="black" stroke-width="1.5"/>
</svg>
