<svg width="32" height="32" viewBox="0 0 32 32" fill="none" xmlns="http://www.w3.org/2000/svg">
<circle cx="16" cy="16" r="16" fill="#CCD2E3"/>
<path d="M10.4399 21.1797C9.89586 21.1797 9.37786 21.0837 8.88586 20.8917C8.39386 20.6957 7.95786 20.4077 7.57786 20.0277C7.20186 19.6477 6.90386 19.1777 6.68386 18.6177C6.46786 18.0577 6.35986 17.4117 6.35986 16.6797C6.35986 15.7237 6.54186 14.9117 6.90586 14.2437C7.27386 13.5717 7.76586 13.0597 8.38186 12.7077C9.00186 12.3557 9.68786 12.1797 10.4399 12.1797C11.5519 12.1797 12.4259 12.4377 13.0619 12.9537C13.6979 13.4697 14.1239 14.1997 14.3399 15.1437L12.6719 15.3837C12.5159 14.8797 12.2599 14.4777 11.9039 14.1777C11.5519 13.8737 11.0999 13.7197 10.5479 13.7157C9.99986 13.7077 9.54386 13.8257 9.17986 14.0697C8.81586 14.3137 8.54186 14.6597 8.35786 15.1077C8.17786 15.5557 8.08786 16.0797 8.08786 16.6797C8.08786 17.2797 8.17786 17.7997 8.35786 18.2397C8.54186 18.6797 8.81586 19.0217 9.17986 19.2657C9.54386 19.5097 9.99986 19.6357 10.5479 19.6437C10.9199 19.6517 11.2559 19.5877 11.5559 19.4517C11.8599 19.3157 12.1159 19.1017 12.3239 18.8097C12.5319 18.5177 12.6799 18.1437 12.7679 17.6877H11.3999V16.4277H14.5079C14.5159 16.4797 14.5219 16.5717 14.5259 16.7037C14.5299 16.8357 14.5319 16.9117 14.5319 16.9317C14.5319 17.7597 14.3639 18.4937 14.0279 19.1337C13.6919 19.7737 13.2179 20.2757 12.6059 20.6397C11.9939 20.9997 11.2719 21.1797 10.4399 21.1797Z" fill="black"/>
<path d="M15.8544 20.9997V12.3597H17.4864V20.9997H15.8544Z" fill="black"/>
<path d="M19.2852 20.9997V12.3597H24.5652V13.9917H20.9172V15.8637H23.8452V17.4957H20.9172V20.9997H19.2852Z" fill="black"/>
</svg>
