<svg width="13" height="16" viewBox="0 0 13 16" fill="none" xmlns="http://www.w3.org/2000/svg">
<path d="M6.51008 8.25C8.19623 8.25 9.56313 6.73896 9.56313 4.875C9.56313 3.01104 8.19623 1.5 6.51008 1.5C4.82393 1.5 3.45703 3.01104 3.45703 4.875C3.45703 6.73896 4.82393 8.25 6.51008 8.25Z" stroke="black" stroke-width="2"/>
<path d="M9.56314 9.60001H9.77807C10.2245 9.60015 10.6555 9.78048 10.9901 10.1071C11.3247 10.4338 11.5399 10.8842 11.5952 11.3739L11.834 13.4826C11.8555 13.6726 11.8402 13.8654 11.7891 14.0483C11.738 14.2312 11.6523 14.4001 11.5376 14.5436C11.423 14.6871 11.2821 14.802 11.1242 14.8807C10.9663 14.9594 10.7951 15 10.6219 15H2.39824C2.22506 15 2.05386 14.9594 1.89598 14.8807C1.73811 14.802 1.59719 14.6871 1.48256 14.5436C1.36793 14.4001 1.28222 14.2312 1.23113 14.0483C1.18003 13.8654 1.16471 13.6726 1.18618 13.4826L1.42432 11.3739C1.4797 10.884 1.69507 10.4333 2.02994 10.1067C2.36481 9.78 2.7961 9.59982 3.24272 9.60001H3.45704" stroke="black" stroke-width="2" stroke-linecap="round" stroke-linejoin="round"/>
</svg>
