<svg width="20" height="21" viewBox="0 0 20 21" fill="none" xmlns="http://www.w3.org/2000/svg">
<path d="M16.8635 10.5479L16.2756 13.9477L17.5073 14.1607L18.0953 10.7609L16.8635 10.5479ZM11.0376 18.2084H7.16374V19.4584H11.0376V18.2084ZM6.40427 17.5105L5.72747 9.68324L4.48212 9.79091L5.15892 17.6182L6.40427 17.5105ZM16.2756 13.9477C15.8533 16.3898 13.6512 18.2084 11.0376 18.2084V19.4584C14.2261 19.4584 16.9758 17.2342 17.5073 14.1607L16.2756 13.9477ZM11.0458 4.7502L10.4935 8.12068L11.7271 8.32278L12.2794 4.95232L11.0458 4.7502ZM5.98989 9.03808L7.18884 8.00495L6.37286 7.05803L5.17391 8.09119L5.98989 9.03808ZM9.37012 4.64346L9.76654 3.11525L8.55662 2.80139L8.16018 4.32959L9.37012 4.64346ZM10.3653 2.81542L10.4861 2.85423L10.8684 1.66414L10.7476 1.62533L10.3653 2.81542ZM8.76971 6.18007C9.02962 5.69339 9.23154 5.1779 9.37012 4.64346L8.16018 4.32959C8.04656 4.76763 7.88094 5.19085 7.66713 5.59111L8.76971 6.18007ZM10.4861 2.85423C10.7415 2.93626 10.9228 3.13349 10.9824 3.36328L12.1923 3.04942C12.0211 2.3894 11.516 1.87214 10.8684 1.66414L10.4861 2.85423ZM9.76654 3.11525C9.79571 3.00274 9.87696 2.89935 9.99996 2.84011L9.45729 1.71404C9.01396 1.92765 8.68096 2.32197 8.55662 2.80139L9.76654 3.11525ZM9.99996 2.84011C10.1122 2.786 10.2444 2.77659 10.3653 2.81542L10.7476 1.62533C10.3228 1.48887 9.85946 1.52024 9.45729 1.71404L9.99996 2.84011ZM11.7949 9.65358H16.1125V8.40358H11.7949V9.65358ZM12.2794 4.95232C12.3831 4.31888 12.3535 3.67073 12.1923 3.04942L10.9824 3.36328C11.0999 3.8161 11.1215 4.28851 11.0458 4.7502L12.2794 4.95232ZM7.16374 18.2084C6.76882 18.2084 6.43846 17.9059 6.40427 17.5105L5.15892 17.6182C5.24888 18.6586 6.11903 19.4584 7.16374 19.4584V18.2084ZM7.18884 8.00495C7.75539 7.51674 8.36604 6.93563 8.76971 6.18007L7.66713 5.59111C7.37848 6.13147 6.91887 6.58752 6.37286 7.05803L7.18884 8.00495ZM18.0953 10.7609C18.308 9.53049 17.3619 8.40358 16.1125 8.40358V9.65358C16.5846 9.65358 16.9445 10.08 16.8635 10.5479L18.0953 10.7609ZM10.4935 8.12068C10.3621 8.92308 10.9806 9.65358 11.7949 9.65358V8.40358C11.7533 8.40358 11.72 8.36592 11.7271 8.32278L10.4935 8.12068ZM5.72747 9.68324C5.70628 9.43824 5.80407 9.19824 5.98989 9.03808L5.17391 8.09119C4.68363 8.51367 4.42636 9.14616 4.48212 9.79091L5.72747 9.68324Z" fill="#323232"/>
<path opacity="0.5" d="M2.5 9.0286L3.12268 8.97476C3.09384 8.64128 2.80744 8.38973 2.47306 8.40415C2.13867 8.41859 1.875 8.69388 1.875 9.0286H2.5ZM3.93234 18.3385L3.12268 8.97476L1.87732 9.08243L2.68699 18.4462L3.93234 18.3385ZM3.125 18.4273V9.0286H1.875V18.4273H3.125ZM2.68699 18.4462C2.676 18.3191 2.77622 18.2084 2.90559 18.2084V19.4584C3.51057 19.4584 3.98435 18.94 3.93234 18.3385L2.68699 18.4462ZM2.90559 18.2084C3.02743 18.2084 3.125 18.3071 3.125 18.4273H1.875C1.875 18.9961 2.33574 19.4584 2.90559 19.4584V18.2084Z" fill="#323232"/>
</svg>
