<svg width="36" height="36" viewBox="0 0 36 36" fill="none" xmlns="http://www.w3.org/2000/svg">
<path fill-rule="evenodd" clip-rule="evenodd" d="M11.5065 29.7888C11.7022 29.9394 11.8951 30.0881 12.0845 30.2349C12.4301 30.5122 12.7626 30.7725 13.0767 31.0119C13.7496 31.538 14.4587 32.0723 15.1755 32.4918C16.011 32.9793 16.965 33.3768 18 33.3768C19.035 33.3768 19.989 32.9793 20.8245 32.4918C21.6615 32.0028 22.485 31.3578 23.2545 30.7518C23.6654 30.4281 24.0784 30.1071 24.4935 29.7888C24.8041 29.5497 25.1216 29.3053 25.443 29.0551C25.9691 28.6648 26.6045 28.1607 27.2826 27.575C28.3261 26.698 29.3546 25.7509 30.2745 24.7158C32.46 22.2558 34.125 19.2048 34.125 15.2073C34.125 11.1393 31.8225 7.61135 28.5 6.09185C25.3515 4.65185 21.468 5.08685 18 8.19035C14.532 5.08535 10.6485 4.65035 7.5 6.08885C4.179 7.61135 1.875 11.1393 1.875 15.2073C1.875 19.2048 3.54 22.2558 5.7255 24.7158C7.4745 26.6853 9.615 28.3338 11.5065 29.7888Z" fill="#4A88D9"/>
</svg>
