<svg width="24" height="24" viewBox="0 0 24 24" fill="none" xmlns="http://www.w3.org/2000/svg">
<path d="M3 12H8.53699C9.99761 12 11 10.8926 11 9.537V6.46297C11 5.10736 9.99761 4 8.53699 4H5.46301C4.1074 4 3 5.10736 3 6.46297V12Z" stroke="#323232" stroke-width="2" stroke-linecap="round" stroke-linejoin="round"/>
<path d="M3 12C3 17.3363 3.99779 18.2183 7 20" stroke="#323232" stroke-width="2" stroke-linecap="round" stroke-linejoin="round"/>
<g opacity="0.4">
<path d="M13.4782 11.5492H18.7031C20.0814 11.5492 21.0273 10.5042 21.0273 9.22497V6.32418C21.0273 5.04496 20.0814 4 18.7031 4H15.7934C14.5141 4 13.4692 5.04496 13.4692 6.32418V11.5492" stroke="#323232" stroke-width="2" stroke-linecap="round" stroke-linejoin="round"/>
<path d="M13.4777 11.5491C13.4777 16.9993 14.4957 17.9 17.5586 19.7198" stroke="#323232" stroke-width="2" stroke-linecap="round" stroke-linejoin="round"/>
</g>
</svg>
