<svg width="20" height="19" viewBox="0 0 20 19" fill="none" xmlns="http://www.w3.org/2000/svg">
<path d="M0 9L5 0L10 9H0ZM5 19C3.9 19 2.95833 18.6083 2.175 17.825C1.39167 17.0417 1 16.1 1 15C1 13.9 1.39167 12.9583 2.175 12.175C2.95833 11.3917 3.9 11 5 11C6.1 11 7.04167 11.3917 7.825 12.175C8.60833 12.9583 9 13.9 9 15C9 16.1 8.60833 17.0417 7.825 17.825C7.04167 18.6083 6.1 19 5 19ZM11 19V11H19V19H11ZM15 9C14.05 8.2 13.2543 7.525 12.613 6.975C11.9717 6.425 11.459 5.94167 11.075 5.525C10.6917 5.10833 10.4167 4.71667 10.25 4.35C10.0833 3.98333 10 3.59167 10 3.175C10 2.425 10.2627 1.79167 10.788 1.275C11.3133 0.758333 11.9673 0.5 12.75 0.5C13.2 0.5 13.621 0.604333 14.013 0.813C14.405 1.02167 14.734 1.309 15 1.675C15.2667 1.30833 15.596 1.021 15.988 0.813C16.38 0.605 16.8007 0.500667 17.25 0.5C18.0333 0.5 18.6877 0.758333 19.213 1.275C19.7383 1.79167 20.0007 2.425 20 3.175C20 3.59167 19.9167 3.98333 19.75 4.35C19.5833 4.71667 19.3083 5.10833 18.925 5.525C18.5417 5.94167 18.0293 6.425 17.388 6.975C16.7467 7.525 15.9507 8.2 15 9Z" fill="black"/>
</svg>
