<svg width="24" height="25" viewBox="0 0 24 25" fill="none" xmlns="http://www.w3.org/2000/svg">
<path d="M3.0918 7.13659L9.78292 3.99965C11.2039 3.33345 12.7963 3.33345 14.2173 3.99965L20.9085 7.13664C22.364 7.81899 22.364 10.1811 20.9085 10.8634L14.2174 14.0003C12.7964 14.6665 11.204 14.6665 9.783 14.0003L5.0002 11.7581" stroke="#323232" stroke-width="2" stroke-linecap="round"/>
<path opacity="0.5" d="M2.5 15.5V12.6376C2.5 11.3584 2.5 10.7188 2.83032 10.2178C3.16064 9.71687 3.74853 9.46492 4.92432 8.961L6 8.5" stroke="#323232" stroke-width="2" stroke-linecap="round" stroke-linejoin="round"/>
<path opacity="0.5" d="M19 12V17.1254C19 18.1334 18.4965 19.0772 17.6147 19.5656C16.1463 20.3787 13.796 21.5 12 21.5C10.204 21.5 7.8537 20.3787 6.38533 19.5656C5.5035 19.0772 5 18.1334 5 17.1254V12" stroke="#323232" stroke-width="2" stroke-linecap="round"/>
</svg>
