<svg width="24" height="24" viewBox="0 0 24 24" fill="none" xmlns="http://www.w3.org/2000/svg">
<path d="M19.5749 7.81628C18.8665 7.03294 17.6832 6.64128 15.9665 6.64128H15.7665V6.60794C15.7665 5.20794 15.7665 3.47461 12.6332 3.47461H11.3665C8.2332 3.47461 8.2332 5.21628 8.2332 6.60794V6.64961H8.0332C6.3082 6.64961 5.1332 7.04128 4.42487 7.82461C3.59987 8.74128 3.62487 9.97461 3.7082 10.8163L3.71654 10.8746L3.77732 11.5129C3.79159 11.6627 3.87234 11.798 3.99834 11.8803C4.20039 12.0121 4.51013 12.2109 4.69987 12.3163C4.81654 12.3913 4.94154 12.4579 5.06654 12.5246C6.49154 13.3079 8.0582 13.8329 9.64987 14.0913C9.72487 14.8746 10.0665 15.7913 11.8915 15.7913C13.7165 15.7913 14.0749 14.8829 14.1332 14.0746C15.8332 13.7996 17.4749 13.2079 18.9582 12.3413C19.0082 12.3163 19.0415 12.2913 19.0832 12.2663C19.4034 12.0853 19.7352 11.8636 20.0398 11.6449C20.153 11.5637 20.2253 11.4375 20.2407 11.299L20.2499 11.2163L20.2915 10.8246C20.2999 10.7746 20.2999 10.7329 20.3082 10.6746C20.3749 9.83294 20.3582 8.68294 19.5749 7.81628ZM12.9082 13.5246C12.9082 14.4079 12.9082 14.5413 11.8832 14.5413C10.8582 14.5413 10.8582 14.3829 10.8582 13.5329V12.4829H12.9082V13.5246ZM9.42487 6.64128V6.60794C9.42487 5.19128 9.42487 4.66628 11.3665 4.66628H12.6332C14.5749 4.66628 14.5749 5.19961 14.5749 6.60794V6.64961H9.42487V6.64128Z" fill="#919DB8"/>
<path d="M19.2594 13.509C19.6135 13.3417 20.0207 13.6223 19.9853 14.0123L19.6997 17.1583C19.5247 18.8249 18.8414 20.5249 15.1747 20.5249H8.82471C5.15804 20.5249 4.47471 18.8249 4.29971 17.1666L4.029 14.1888C3.99395 13.8033 4.39227 13.5233 4.74531 13.6819C5.70451 14.113 7.31652 14.8064 8.3525 15.0854C8.51651 15.1295 8.64966 15.2476 8.72406 15.4003C9.23826 16.4555 10.3274 17.0166 11.8914 17.0166C13.4399 17.0166 14.5424 16.4339 15.0585 15.3755C15.133 15.2227 15.2661 15.1047 15.4302 15.0603C16.532 14.7618 18.2533 13.9845 19.2594 13.509Z" fill="#919DB8"/>
</svg>
