<svg width="19" height="15" viewBox="0 0 19 15" fill="none" xmlns="http://www.w3.org/2000/svg">
<path d="M16.7581 0H7.46774V2.57732H9.79032V3.60825H2.24194C1.25484 3.60825 0.5 4.27835 0.5 5.15464V10.8247C0.5 11.701 1.25484 12.3711 2.24194 12.3711H2.82258V15L6.48065 12.3711H10.371V8.76289H16.7581C17.7452 8.76289 18.5 8.09278 18.5 7.2165V1.54639C18.5 0.670103 17.7452 0 16.7581 0ZM6.77097 10.2577L6.48065 9.43299H4.68064L4.33226 10.2577H2.93871L4.85484 5.6701H6.24839L8.16452 10.2577H6.77097ZM15.5968 6.18557V7.2165C14.8419 7.2165 14.029 7.01031 13.3323 6.70103C12.6355 7.01031 11.8226 7.16495 11.0097 7.2165L10.9516 6.18557C11.3581 6.18557 11.7645 6.13402 12.171 6.03093C11.6484 5.56701 11.3 5 11.1258 4.38144H12.3452C12.5194 4.84536 12.8677 5.20619 13.2742 5.51546C13.9129 5.05155 14.3194 4.38144 14.3774 3.60825H10.8935V2.57732H12.6355V1.54639H13.7968V2.57732H15.7129L15.771 3.09278C15.829 4.17526 15.3645 5.25773 14.4935 6.03093C14.9 6.13402 15.2484 6.18557 15.5968 6.18557Z" fill="#757694"/>
<path d="M5.5 7L4.5 9H6.5L5.5 7Z" fill="#757694"/>
</svg>
