<svg width="18" height="17" viewBox="0 0 18 17" fill="none" xmlns="http://www.w3.org/2000/svg">
<path d="M9 15.9995C13.1421 15.9995 16.5 12.328 16.5 9.82301C16.5 7.31799 13.1421 3.64648 9 3.64648C4.85792 3.64648 1.5 7.32063 1.5 9.82301C1.5 12.3254 4.85792 15.9995 9 15.9995Z" stroke="#757694" stroke-width="2" stroke-linejoin="round"/>
<path d="M9 12.4709C9.66304 12.4709 10.2989 12.192 10.7678 11.6956C11.2366 11.1992 11.5 10.5259 11.5 9.82384C11.5 9.12179 11.2366 8.44849 10.7678 7.95207C10.2989 7.45565 9.66304 7.17676 9 7.17676C8.33696 7.17676 7.70107 7.45565 7.23223 7.95207C6.76339 8.44849 6.5 9.12179 6.5 9.82384C6.5 10.5259 6.76339 11.1992 7.23223 11.6956C7.70107 12.192 8.33696 12.4709 9 12.4709Z" stroke="#757694" stroke-width="2" stroke-linejoin="round"/>
<path d="M4.52637 2.88207L5.6072 4.47915M13.8435 3.07796L12.7622 4.67503M9.00345 1V3.64708" stroke="#757694" stroke-width="2" stroke-linecap="round"/>
</svg>
