<svg width="76" height="76" viewBox="0 0 76 76" fill="none" xmlns="http://www.w3.org/2000/svg">
<g clip-path="url(#clip0_129_4605)">
<path d="M20.6853 35.3038L34.796 32.2253C37.3189 31.669 39.817 33.2762 40.3611 35.7983L42.2409 44.3907C42.7974 46.9127 41.1897 49.4101 38.6669 49.9541L29.0948 52.0434L25.6692 55.4804C25.6692 55.4804 24.7045 56.7661 24.383 55.3197C24.247 54.7015 24.0491 53.8855 23.8636 53.1437C21.5881 53.2921 19.4857 51.7714 18.9786 49.4719L17.1112 40.8672C16.5547 38.3451 18.15 35.8477 20.6853 35.3038Z" fill="white" fill-opacity="0.3"/>
<path fill-rule="evenodd" clip-rule="evenodd" d="M38.6297 21.1235L55.5724 24.8201C58.6024 25.4754 60.5316 28.4672 59.8762 31.4715L57.6254 41.7947C57.0194 44.5516 54.4965 46.3938 51.7634 46.2083C51.5408 47.0984 51.3058 48.0875 51.1451 48.8293C50.7617 50.5725 49.5992 49.0271 49.5992 49.0271L45.481 44.9102L33.9921 42.4128C30.9622 41.7576 29.0453 38.7657 29.7007 35.7367L31.9515 25.4135C32.607 22.3846 35.5998 20.4683 38.6297 21.1235ZM37.3808 34.1171C38.6375 34.1171 39.6563 33.0987 39.6563 31.8423C39.6563 30.586 38.6375 29.5675 37.3808 29.5675C36.124 29.5675 35.1052 30.586 35.1052 31.8423C35.1052 33.0987 36.124 34.1171 37.3808 34.1171ZM46.9963 34.8446C47.7152 33.8142 47.4625 32.3961 46.4317 31.6774C45.4009 30.9586 43.9825 31.2113 43.2635 32.2418C42.5445 33.2722 42.7973 34.6902 43.828 35.409C44.8588 36.1278 46.2773 35.8751 46.9963 34.8446ZM52.8851 32.9569C54.1399 33.0266 55.1006 34.1001 55.0309 35.3545C54.9611 36.609 53.8873 37.5694 52.6324 37.4997C51.3776 37.4299 50.4169 36.3564 50.4866 35.102C50.5564 33.8475 51.6302 32.8871 52.8851 32.9569Z" fill="white"/>
</g>
<path fill-rule="evenodd" clip-rule="evenodd" d="M38 4C19.2223 4 4 19.2223 4 38C4 56.7777 19.2223 72 38 72C56.7777 72 72 56.7777 72 38C72 19.2223 56.7777 4 38 4ZM0 38C0 17.0132 17.0132 0 38 0C58.9868 0 76 17.0132 76 38C76 58.9868 58.9868 76 38 76C17.0132 76 0 58.9868 0 38Z" fill="white"/>
<defs>
<clipPath id="clip0_129_4605">
<rect width="43" height="35" fill="white" transform="translate(17 21)"/>
</clipPath>
</defs>
</svg>
