<svg width="24" height="24" viewBox="0 0 24 24" fill="none" xmlns="http://www.w3.org/2000/svg">
<path d="M8.46967 6.53033C8.17678 6.23744 8.17678 5.76256 8.46967 5.46967C8.76256 5.17678 9.23744 5.17678 9.53033 5.46967L8.46967 6.53033ZM15 12L15.5303 11.4697L16.0607 12L15.5303 12.5303L15 12ZM9.53033 18.5303C9.23744 18.8232 8.76256 18.8232 8.46967 18.5303C8.17678 18.2374 8.17678 17.7626 8.46967 17.4697L9.53033 18.5303ZM9.53033 5.46967L15.5303 11.4697L14.4697 12.5303L8.46967 6.53033L9.53033 5.46967ZM15.5303 12.5303L9.53033 18.5303L8.46967 17.4697L14.4697 11.4697L15.5303 12.5303Z" fill="#83849E"/>
</svg>
