<svg width="76" height="76" viewBox="0 0 76 76" fill="none" xmlns="http://www.w3.org/2000/svg">
<path fill-rule="evenodd" clip-rule="evenodd" d="M38 4C19.2223 4 4 19.2223 4 38C4 56.7777 19.2223 72 38 72C56.7777 72 72 56.7777 72 38C72 19.2223 56.7777 4 38 4ZM0 38C0 17.0132 17.0132 0 38 0C58.9868 0 76 17.0132 76 38C76 58.9868 58.9868 76 38 76C17.0132 76 0 58.9868 0 38Z" fill="white"/>
<path d="M39.353 38.8366C42.0107 38.8366 44.1651 36.6838 44.1651 34.0281C44.1651 31.3725 42.0107 29.2197 39.353 29.2197C36.6954 29.2197 34.541 31.3725 34.541 34.0281C34.541 36.6838 36.6954 38.8366 39.353 38.8366Z" fill="white"/>
<path d="M31.0522 50.7578H40.5861C42.7916 50.1968 45.0573 49.1249 47.0723 47.2516V46.8008C47.0723 43.455 44.3555 40.7402 41.0071 40.7402H36.7966C33.4482 40.7402 30.7314 43.455 30.7314 46.8008V50.6776C30.8317 50.7077 30.9319 50.7277 31.0522 50.7578Z" fill="url(#paint0_linear_129_4606)"/>
<path fill-rule="evenodd" clip-rule="evenodd" d="M18.5 35.6809C18.5 26.2104 26.2156 18.5 35.6942 18.5C45.173 18.5 52.8885 26.2106 52.8885 35.6709C52.8885 38.8111 52.0434 41.7583 50.5651 44.2927C50.1323 45.0345 49.6453 45.7411 49.1093 46.4067L48.8258 46.7588L56.1551 53.9883C56.8509 54.6764 56.8366 55.8844 55.9997 56.6876L55.9989 56.6883L55.7182 56.9588L55.7156 56.9613C54.9617 57.6985 53.8507 57.6587 53.2615 56.9973C51.7449 55.2811 49.206 52.4834 46.5607 49.5697L46.2566 49.2349L45.893 49.5039C43.0389 51.6162 39.5134 52.8619 35.6942 52.8619C26.2156 52.8619 18.5 45.1515 18.5 35.6809ZM35.6942 20.6054C27.3783 20.6054 20.6078 27.3704 20.6078 35.6809C20.6078 43.9915 27.3783 50.7564 35.6942 50.7564C41.6989 50.7564 46.8979 47.2293 49.3239 42.1399C50.2577 40.181 50.7807 37.9907 50.7807 35.6809C50.7807 27.7886 44.6745 21.2903 36.9374 20.6562C36.5274 20.6226 36.1128 20.6054 35.6942 20.6054Z" fill="white"/>
<path d="M31.9995 32.5051C31.9995 32.4978 31.9995 32.492 31.9995 32.4848C31.9995 31.1881 31.1356 30 29.8358 30C28.8026 30 28.204 30.8061 28 31.5601C27.796 30.8061 27.1974 30 26.1642 30C24.8644 30 24.0005 31.1881 24.0005 32.4848C24.0005 32.492 24.0005 32.4978 24.0005 32.5051C23.9938 32.7873 24.0005 35.6585 27.9987 38C31.9995 35.6599 32.0062 32.7873 31.9995 32.5051Z" fill="white"/>
<defs>
<linearGradient id="paint0_linear_129_4606" x1="37.5" y1="40.5" x2="43.5" y2="53.5" gradientUnits="userSpaceOnUse">
<stop stop-color="white"/>
<stop offset="1" stop-color="white" stop-opacity="0.21"/>
</linearGradient>
</defs>
</svg>
