<svg width="18" height="18" viewBox="0 0 18 18" fill="none" xmlns="http://www.w3.org/2000/svg">
<path d="M5.0625 1.6875C3.83119 1.6875 2.6955 2.17125 1.87088 3.06337C1.04681 3.9555 0.5625 5.22338 0.5625 6.75C0.5625 8.01169 1.09969 9.27169 1.84388 10.4192C1.95975 10.5981 2.08125 10.7747 2.20781 10.9496L2.86594 10.6538C2.97779 10.6041 3.06706 10.5144 3.11625 10.4023L3.11737 10.3995L3.14719 10.3292C3.02273 10.1584 2.90288 9.98437 2.78775 9.80719C2.09981 8.74631 1.6875 7.70344 1.6875 6.75C1.6875 5.46412 2.0925 4.482 2.69719 3.82725C3.30188 3.1725 4.13438 2.8125 5.0625 2.8125C6.3 2.8125 7.11956 3.30187 7.65394 3.79012C7.9245 4.03762 8.12475 4.28737 8.26931 4.48312C8.30588 4.53206 8.3385 4.57762 8.36944 4.62037L8.37619 4.62994L8.45606 4.73962C8.48025 4.77225 8.51625 4.8195 8.55731 4.86225C8.57644 4.88306 8.61356 4.91962 8.66363 4.9545C8.70131 4.98094 8.82338 5.0625 9.00113 5.0625C9.18113 5.0625 9.30375 4.97925 9.34088 4.95337C9.39038 4.91794 9.42694 4.88137 9.44663 4.86056C9.486 4.81837 9.522 4.77113 9.54619 4.73906L9.62438 4.63106L9.63225 4.61981L9.73181 4.48256C9.91366 4.23223 10.1196 4.00031 10.3466 3.79012C10.8804 3.30187 11.6994 2.8125 12.9375 2.8125C13.9157 2.8125 14.7448 3.17587 15.3337 3.82387C15.9255 4.47469 16.3125 5.45625 16.3125 6.75C16.3125 7.722 15.8991 8.77444 15.2117 9.837C14.5282 10.8934 13.6046 11.9138 12.6568 12.8098C11.8247 13.5934 10.9437 14.3235 10.0192 14.9957C9.65137 15.2623 9.34256 15.4704 9.12094 15.6099L9.00281 15.6831C8.96262 15.6585 8.92268 15.6336 8.883 15.6082C8.66138 15.4676 8.352 15.2572 7.98356 14.9878C7.43373 14.5839 6.89899 14.1599 6.38044 13.7166L5.91919 14.7994C6.37442 15.179 6.84134 15.5444 7.31925 15.8951C7.70231 16.1764 8.0325 16.4014 8.28 16.5583C8.40263 16.6359 8.51063 16.7006 8.59725 16.7479C8.64 16.7709 8.68556 16.7946 8.72944 16.8137C8.75138 16.8233 8.78063 16.8351 8.81437 16.8457C8.83687 16.8525 8.90944 16.875 9.00113 16.875C9.09225 16.875 9.16425 16.8525 9.18675 16.8457C9.21994 16.8356 9.24862 16.8238 9.27112 16.8142C9.31568 16.7947 9.3594 16.7733 9.40219 16.7501C9.48881 16.7034 9.59625 16.6399 9.71887 16.5628C9.96638 16.4076 10.2966 16.1848 10.6796 15.9064C11.6436 15.2057 12.5621 14.4446 13.4297 13.6277C14.4152 12.6956 15.4074 11.6066 16.1567 10.4479C16.9014 9.29587 17.4375 8.028 17.4375 6.75C17.4375 5.23125 16.9807 3.96281 16.1663 3.06675C15.3489 2.16788 14.2087 1.6875 12.9375 1.6875C11.3631 1.6875 10.2836 2.32313 9.58725 2.95988C9.37586 3.15416 9.17972 3.3644 9.00056 3.58875C8.82099 3.3644 8.62448 3.15416 8.41275 2.95988C7.71638 2.32313 6.6375 1.6875 5.0625 1.6875Z" fill="#ECF3FB"/>
<path d="M6.46918 11.1654C6.22731 11.0585 6.04168 10.8616 5.93481 10.6198L5.14168 8.75789C5.10912 8.69087 5.05835 8.63436 4.99519 8.59483C4.93202 8.5553 4.85901 8.53433 4.7845 8.53433C4.70998 8.53433 4.63697 8.5553 4.57381 8.59483C4.51064 8.63436 4.45988 8.69087 4.42731 8.75789L3.63418 10.6198C3.53293 10.8616 3.34168 11.0529 3.09981 11.1654L2.09856 11.6154C2.03154 11.648 1.97503 11.6987 1.9355 11.7619C1.89596 11.8251 1.875 11.8981 1.875 11.9726C1.875 12.0471 1.89596 12.1201 1.9355 12.1833C1.97503 12.2464 2.03154 12.2972 2.09856 12.3298L3.09981 12.7798C3.34168 12.8866 3.52731 13.0835 3.63418 13.3254L4.42731 15.1873C4.57356 15.4854 4.99543 15.4854 5.14168 15.1873L5.93481 13.3254C6.03606 13.0835 6.22731 12.8923 6.46918 12.7798L7.47043 12.3298C7.53745 12.2972 7.59396 12.2464 7.63349 12.1833C7.67303 12.1201 7.69399 12.0471 7.69399 11.9726C7.69399 11.8981 7.67303 11.8251 7.63349 11.7619C7.59396 11.6987 7.53745 11.648 7.47043 11.6154L6.46918 11.1654ZM13.8492 5.05664C13.9054 5.18602 14.0067 5.29289 14.1361 5.34914L14.6761 5.58539C14.8392 5.66414 14.8392 5.89477 14.6761 5.97352L14.1304 6.21539C14.0011 6.27164 13.8998 6.37852 13.8436 6.50789L13.4161 7.51477C13.3373 7.67227 13.1067 7.67227 13.0279 7.51477L12.6004 6.50789C12.5452 6.37767 12.4427 6.27318 12.3136 6.21539L11.7679 5.97352C11.7312 5.95607 11.7002 5.92858 11.6785 5.89423C11.6568 5.85988 11.6453 5.82008 11.6453 5.77945C11.6453 5.73882 11.6568 5.69902 11.6785 5.66468C11.7002 5.63033 11.7312 5.60284 11.7679 5.58539L12.3136 5.34352C12.4429 5.28727 12.5442 5.18039 12.6004 5.05102L13.0336 4.04977C13.1123 3.89227 13.3429 3.89227 13.4217 4.04977L13.8492 5.05664Z" fill="#ECF3FB"/>
</svg>
