<svg width="36" height="36" viewBox="0 0 36 36" fill="none" xmlns="http://www.w3.org/2000/svg">
<path fill-rule="evenodd" clip-rule="evenodd" d="M31 18C31 25.1797 25.1797 31 18 31C10.8203 31 5 25.1797 5 18C5 10.8203 10.8203 5 18 5C25.1797 5 31 10.8203 31 18ZM19 24C19 24.5523 18.5523 25 18 25C17.4477 25 17 24.5523 17 24C17 23.4477 17.4477 23 18 23C18.5523 23 19 23.4477 19 24ZM18 11C15.7909 11 14 12.7909 14 15H16C16 13.8954 16.8954 13 18 13H18.0943C19.1468 13 20 13.8532 20 14.9057V15.4189C20 15.9327 19.6712 16.3888 19.1838 16.5513C17.8796 16.986 17 18.2065 17 19.5811V22H19V19.5811C19 19.0673 19.3288 18.6112 19.8162 18.4487C21.1204 18.014 22 16.7935 22 15.4189V14.9057C22 12.7486 20.2514 11 18.0943 11H18Z" fill="white"/>
</svg>
