<svg width="73" height="32" viewBox="0 0 73 32" fill="none" xmlns="http://www.w3.org/2000/svg">
<rect width="73" height="32" rx="12" fill="url(#paint0_linear_3406_2205)"/>
<path d="M14.75 6.25C13.1083 6.25 11.594 6.895 10.4945 8.0845C9.39575 9.274 8.75 10.9645 8.75 13C8.75 14.6823 9.46625 16.3623 10.4585 17.8923C10.613 18.1308 10.775 18.3662 10.9437 18.5995L11.8212 18.205C11.9704 18.1387 12.0894 18.0192 12.155 17.8698L12.1565 17.866L12.1962 17.7723C12.0303 17.5446 11.8705 17.3125 11.717 17.0762C10.7997 15.6617 10.25 14.2713 10.25 13C10.25 11.2855 10.79 9.976 11.5963 9.103C12.4025 8.23 13.5125 7.75 14.75 7.75C16.4 7.75 17.4928 8.4025 18.2053 9.0535C18.566 9.3835 18.833 9.7165 19.0258 9.9775C19.0745 10.0427 19.118 10.1035 19.1592 10.1605L19.1682 10.1732L19.2747 10.3195C19.307 10.363 19.355 10.426 19.4098 10.483C19.4353 10.5108 19.4848 10.5595 19.5515 10.606C19.6018 10.6412 19.7645 10.75 20.0015 10.75C20.2415 10.75 20.405 10.639 20.4545 10.6045C20.5205 10.5572 20.5693 10.5085 20.5955 10.4807C20.648 10.4245 20.696 10.3615 20.7283 10.3188L20.8325 10.1747L20.843 10.1598L20.9758 9.97675C21.2182 9.64298 21.4928 9.33375 21.7955 9.0535C22.5072 8.4025 23.5993 7.75 25.25 7.75C26.5542 7.75 27.6598 8.2345 28.445 9.0985C29.234 9.96625 29.75 11.275 29.75 13C29.75 14.296 29.1987 15.6993 28.2822 17.116C27.371 18.5245 26.1395 19.885 24.8757 21.0798C23.7662 22.1245 22.5916 23.098 21.359 23.9943C20.8685 24.3498 20.4568 24.6272 20.1613 24.8132L20.0037 24.9108C19.9502 24.878 19.8969 24.8448 19.844 24.811C19.5485 24.6235 19.136 24.343 18.6447 23.9838C17.9116 23.4452 17.1987 22.8799 16.5073 22.2888L15.8922 23.7325C16.4992 24.2387 17.1218 24.7259 17.759 25.1935C18.2698 25.5685 18.71 25.8685 19.04 26.0778C19.2035 26.1813 19.3475 26.2675 19.463 26.3305C19.52 26.3613 19.5808 26.3928 19.6393 26.4183C19.6685 26.431 19.7075 26.4467 19.7525 26.461C19.7825 26.47 19.8793 26.5 20.0015 26.5C20.123 26.5 20.219 26.47 20.249 26.461C20.2933 26.4475 20.3315 26.4318 20.3615 26.419C20.4209 26.3929 20.4792 26.3644 20.5363 26.3335C20.6518 26.2712 20.795 26.1865 20.9585 26.0837C21.2885 25.8767 21.7288 25.5797 22.2395 25.2085C23.5248 24.2743 24.7495 23.2595 25.9062 22.1702C27.2202 20.9275 28.5432 19.4755 29.5422 17.9305C30.5352 16.3945 31.25 14.704 31.25 13C31.25 10.975 30.641 9.28375 29.555 8.089C28.4652 6.8905 26.945 6.25 25.25 6.25C23.1507 6.25 21.7115 7.0975 20.783 7.9465C20.5011 8.20554 20.2396 8.48587 20.0007 8.785C19.7613 8.48587 19.4993 8.20555 19.217 7.9465C18.2885 7.0975 16.85 6.25 14.75 6.25Z" fill="#FCFCFE"/>
<path d="M16.6266 18.8875C16.3041 18.745 16.0566 18.4825 15.9141 18.16L14.8566 15.6775C14.8131 15.5881 14.7454 15.5128 14.6612 15.4601C14.577 15.4074 14.4797 15.3794 14.3803 15.3794C14.281 15.3794 14.1836 15.4074 14.0994 15.4601C14.0152 15.5128 13.9475 15.5881 13.9041 15.6775L12.8466 18.16C12.7116 18.4825 12.4566 18.7375 12.1341 18.8875L10.7991 19.4875C10.7097 19.5309 10.6344 19.5986 10.5816 19.6828C10.5289 19.767 10.501 19.8644 10.501 19.9637C10.501 20.0631 10.5289 20.1604 10.5816 20.2447C10.6344 20.3289 10.7097 20.3966 10.7991 20.44L12.1341 21.04C12.4566 21.1825 12.7041 21.445 12.8466 21.7675L13.9041 24.25C14.0991 24.6475 14.6616 24.6475 14.8566 24.25L15.9141 21.7675C16.0491 21.445 16.3041 21.19 16.6266 21.04L17.9616 20.44C18.0509 20.3966 18.1263 20.3289 18.179 20.2447C18.2317 20.1604 18.2596 20.0631 18.2596 19.9637C18.2596 19.8644 18.2317 19.767 18.179 19.6828C18.1263 19.5986 18.0509 19.5309 17.9616 19.4875L16.6266 18.8875ZM26.4666 10.7425C26.5416 10.915 26.6766 11.0575 26.8491 11.1325L27.5691 11.4475C27.7866 11.5525 27.7866 11.86 27.5691 11.965L26.8416 12.2875C26.6691 12.3625 26.5341 12.505 26.4591 12.6775L25.8891 14.02C25.7841 14.23 25.4766 14.23 25.3716 14.02L24.8016 12.6775C24.7279 12.5039 24.5912 12.3645 24.4191 12.2875L23.6916 11.965C23.6426 11.9417 23.6013 11.9051 23.5724 11.8593C23.5434 11.8135 23.5281 11.7604 23.5281 11.7062C23.5281 11.6521 23.5434 11.599 23.5724 11.5532C23.6013 11.5074 23.6426 11.4708 23.6916 11.4475L24.4191 11.125C24.5916 11.05 24.7266 10.9075 24.8016 10.735L25.3791 9.39999C25.4841 9.18999 25.7916 9.18999 25.8966 9.39999L26.4666 10.7425Z" fill="#FCFCFE"/>
<path d="M38.8 21H37.022V11.06H40.522C41.81 11.06 42.7947 11.3213 43.476 11.844C44.1573 12.3667 44.498 13.1227 44.498 14.112C44.498 15.1107 44.1293 15.8947 43.392 16.464C42.6547 17.024 41.5813 17.304 40.172 17.304H38.8V21ZM40.452 12.544H38.8V15.806H40.27C41.11 15.806 41.7213 15.6707 42.104 15.4C42.4867 15.1293 42.678 14.7093 42.678 14.14C42.678 13.5707 42.496 13.1647 42.132 12.922C41.7773 12.67 41.2173 12.544 40.452 12.544ZM53.6123 19.264L54.0323 20.678C53.8457 20.818 53.617 20.9253 53.3463 21C53.0757 21.084 52.791 21.126 52.4923 21.126C51.447 21.126 50.6257 20.664 50.0283 19.74L48.5863 17.528C48.437 17.2947 48.283 17.1313 48.1243 17.038C47.9657 16.9447 47.793 16.898 47.6063 16.898H47.5363V21H45.7583V11.06H48.8523C50.1123 11.06 51.0643 11.3213 51.7083 11.844C52.3617 12.3667 52.6883 13.0853 52.6883 14C52.6883 14.5507 52.567 15.0267 52.3243 15.428C52.0817 15.82 51.7503 16.1327 51.3303 16.366C50.9103 16.5993 50.4343 16.7487 49.9023 16.814C50.1823 16.9633 50.439 17.2153 50.6723 17.57L51.4563 18.732C51.6617 19.0307 51.853 19.236 52.0303 19.348C52.217 19.46 52.4503 19.516 52.7303 19.516C53.057 19.516 53.351 19.432 53.6123 19.264ZM48.7263 12.544H47.5363V15.47H48.6423C49.4077 15.47 49.9723 15.3533 50.3363 15.12C50.7003 14.8867 50.8823 14.5133 50.8823 14C50.8823 13.0293 50.1637 12.544 48.7263 12.544ZM58.7546 21.126C57.7466 21.1353 56.8833 20.9487 56.1646 20.566C55.4459 20.174 54.8953 19.6093 54.5126 18.872C54.1299 18.1347 53.9386 17.248 53.9386 16.212C53.9386 15.176 54.1439 14.2613 54.5546 13.468C54.9653 12.6653 55.5439 12.04 56.2906 11.592C57.0466 11.144 57.9379 10.92 58.9646 10.92C59.8793 10.92 60.6819 11.1253 61.3726 11.536C62.0633 11.9467 62.5999 12.5207 62.9826 13.258C63.3653 13.986 63.5566 14.8447 63.5566 15.834C63.5566 16.9073 63.3466 17.8407 62.9266 18.634C62.5159 19.418 61.9466 20.0293 61.2186 20.468C60.4999 20.9067 59.6786 21.126 58.7546 21.126ZM58.6986 19.488C59.2866 19.488 59.8046 19.3433 60.2526 19.054C60.7099 18.7647 61.0646 18.3493 61.3166 17.808C61.5779 17.2667 61.7086 16.6087 61.7086 15.834C61.7086 14.8353 61.4566 14.0373 60.9526 13.44C60.4486 12.8427 59.7719 12.544 58.9226 12.544C58.3159 12.544 57.7746 12.698 57.2986 13.006C56.8319 13.314 56.4633 13.7387 56.1926 14.28C55.9219 14.8213 55.7866 15.456 55.7866 16.184C55.7866 17.2387 56.0433 18.0553 56.5566 18.634C57.0793 19.2033 57.7933 19.488 58.6986 19.488Z" fill="#FCFCFE"/>
<defs>
<linearGradient id="paint0_linear_3406_2205" x1="-3.5986" y1="3.83103" x2="17.6652" y2="49.992" gradientUnits="userSpaceOnUse">
<stop stop-color="#4A88D9"/>
<stop offset="1" stop-color="#052DA6"/>
</linearGradient>
</defs>
</svg>
