<svg width="16" height="16" viewBox="0 0 16 16" fill="none" xmlns="http://www.w3.org/2000/svg">
<path d="M8.0412 1.33337C4.71015 1.33337 2 4.04353 2 7.37457C2 10.5056 4.41264 13.124 7.51533 13.3916L6.31941 13.9978C6.17191 14.0791 6.08357 14.2612 6.17149 14.405L6.21357 14.5141C6.30149 14.6583 6.49192 14.7091 6.63901 14.6283L8.6354 13.6062C8.63787 13.6045 8.6404 13.6049 8.64327 13.6032L8.77747 13.5299C8.8512 13.489 8.9004 13.4228 8.92 13.349C8.9404 13.2753 8.9312 13.1928 8.88707 13.1211L8.80747 12.9907C8.8062 12.9882 8.80373 12.9865 8.80247 12.9844L7.56947 11.0577C7.482 10.9135 7.292 10.8626 7.14407 10.9435L7.0474 11.011C6.89987 11.0918 6.88987 11.3002 6.97733 11.4435L7.70493 12.5724C7.70113 12.5724 7.6974 12.5707 7.69367 12.5702C4.9685 12.3915 2.83421 10.1088 2.83421 7.37411C2.83421 4.50272 5.17059 2.16634 8.042 2.16634C10.9139 2.16634 13.2631 4.5023 13.2631 7.37411C13.2631 9.02757 12.5035 10.5464 11.1797 11.5406C10.9955 11.679 10.9589 11.9402 11.0967 12.1244C11.2351 12.3086 11.4964 12.3456 11.6805 12.2073C13.2165 11.0539 14.0969 9.29217 14.0969 7.37457C14.0969 4.04353 11.3735 1.33337 8.0424 1.33337H8.0412Z" fill="#FCFCFE" stroke="#FCFCFE"/>
</svg>
