<svg width="24" height="25" viewBox="0 0 24 25" fill="none" xmlns="http://www.w3.org/2000/svg">
<path d="M4.045 19.008C2.682 17.645 2 16.963 2 16.116C2 15.268 2.682 14.586 4.045 13.223L12.723 4.545C14.087 3.182 14.768 2.5 15.616 2.5C16.463 2.5 17.145 3.182 18.508 4.545L19.955 5.992C21.318 7.355 22 8.037 22 8.884C22 9.731 21.318 10.414 19.955 11.777L11.277 20.455C9.913 21.818 9.23 22.5 8.384 22.5C7.538 22.5 6.855 21.818 5.492 20.455L4.045 19.008Z" stroke="#000410" stroke-width="2"/>
<path opacity="0.5" d="M8.71381 9.78528L10.2873 11.2157M13.4287 5.5L15 6.92843M4 14.0716L5.57127 15.5M6.3569 11.9289L8.71492 14.0716M11.0718 7.64264L13.4287 9.78528" stroke="#000410" stroke-width="2" stroke-linecap="round"/>
</svg>
