<svg width="76" height="76" viewBox="0 0 76 76" fill="none" xmlns="http://www.w3.org/2000/svg">
<path fill-rule="evenodd" clip-rule="evenodd" d="M38 4C19.2223 4 4 19.2223 4 38C4 56.7777 19.2223 72 38 72C56.7777 72 72 56.7777 72 38C72 19.2223 56.7777 4 38 4ZM0 38C0 17.0132 17.0132 0 38 0C58.9868 0 76 17.0132 76 38C76 58.9868 58.9868 76 38 76C17.0132 76 0 58.9868 0 38Z" fill="white"/>
<mask id="mask0_129_4607" style="mask-type:alpha" maskUnits="userSpaceOnUse" x="30" y="20" width="29" height="37">
<path d="M35.1063 21.9708C35.2943 20.8824 36.3291 20.1524 37.4176 20.3405L56.4884 23.6352C57.5768 23.8233 58.3067 24.8581 58.1187 25.9465L53.1869 54.493C52.9989 55.5814 51.9641 56.3114 50.8756 56.1233L31.8048 52.8286C30.7164 52.6405 29.9865 51.6057 30.1745 50.5173L35.1063 21.9708Z" fill="#D9D9D9"/>
</mask>
<g mask="url(#mask0_129_4607)">
<g filter="url(#filter0_f_129_4607)">
<path d="M24.0619 20.4356C20.4179 21.5069 18.3322 25.3294 19.4035 28.9735C20.4748 32.6175 24.2973 34.7032 27.9414 33.6319C31.5854 32.5606 33.6711 28.7381 32.5998 25.094C31.5285 21.45 27.706 19.3643 24.0619 20.4356Z" fill="white"/>
<path d="M21.9379 39.2199C18.2938 40.2912 16.2081 44.1137 17.2794 47.7578L17.8941 49.8486C18.2837 51.1739 19.5764 52.0215 20.9471 51.8506C28.8371 50.8665 36.5152 48.6093 43.6825 45.1669C44.9277 44.5688 45.556 43.1564 45.1664 41.8311L44.5517 39.7403C43.4805 36.0963 39.6579 34.0106 36.0139 35.0819L35.4141 35.2582C35.0895 35.3536 34.782 35.4998 34.5031 35.6913L33.1264 36.6362C30.8005 38.2327 28.027 39.048 25.2072 38.9643L23.5381 38.9147C23.1999 38.9047 22.8622 38.9482 22.5376 39.0436L21.9379 39.2199Z" fill="white"/>
</g>
</g>
<path d="M35.1058 21.9708C35.2938 20.8824 36.3286 20.1524 37.4171 20.3405L56.4879 23.6352C57.5763 23.8233 58.3063 24.8581 58.1182 25.9465L53.1864 54.493C52.9984 55.5814 51.9636 56.3114 50.8751 56.1233L31.8043 52.8286C30.7159 52.6405 29.986 51.6057 30.174 50.5173L35.1058 21.9708Z" fill="white" fill-opacity="0.25"/>
<path fill-rule="evenodd" clip-rule="evenodd" d="M19.4051 28.978C18.3338 25.334 20.4195 21.5115 24.0635 20.4402C27.7076 19.3689 31.5301 21.4546 32.6014 25.0986C33.6726 28.7427 31.587 32.5652 27.9429 33.6365C24.2989 34.7077 20.4764 32.6221 19.4051 28.978ZM17.281 47.7624C16.2097 44.1183 18.2954 40.2958 21.9394 39.2245L22.5392 39.0482C22.8638 38.9528 23.2015 38.9093 23.5397 38.9193L25.2087 38.9689C27.7792 39.0452 30.3111 38.3745 32.5006 37.046L30.2486 50.081C27.1948 50.8703 24.0885 51.4635 20.9487 51.8551C19.5779 52.0261 18.2853 51.1784 17.8956 49.8531L17.281 47.7624Z" fill="white"/>
<defs>
<filter id="filter0_f_129_4607" x="12.9985" y="16.1543" width="36.2827" height="39.7178" filterUnits="userSpaceOnUse" color-interpolation-filters="sRGB">
<feFlood flood-opacity="0" result="BackgroundImageFix"/>
<feBlend mode="normal" in="SourceGraphic" in2="BackgroundImageFix" result="shape"/>
<feGaussianBlur stdDeviation="2" result="effect1_foregroundBlur_129_4607"/>
</filter>
</defs>
</svg>
