<svg width="24" height="24" viewBox="0 0 24 24" fill="none" xmlns="http://www.w3.org/2000/svg">
<g clip-path="url(#clip0_1961_10632)">
<path d="M23.9029 2.50721C23.8939 2.14972 23.6383 1.8462 23.2876 1.7765L19.4544 1.01481C19.0402 0.932505 18.6377 1.20156 18.5554 1.61575C18.4731 2.02994 18.7422 2.43241 19.1563 2.51474L21.5531 2.99097L19.3922 4.80419C19.2372 4.64452 19.0741 4.49191 18.9031 4.34704C17.6956 3.32365 16.1722 2.74789 14.5897 2.71662C13.0073 2.68535 11.4623 3.20058 10.2154 4.17549C8.9684 5.15034 8.09562 6.52528 7.74414 8.06862C7.39258 9.6119 7.58386 11.2292 8.28563 12.6479C8.47284 13.0264 8.93146 13.1815 9.31001 12.9943C9.6885 12.8071 9.84357 12.3484 9.65636 11.9699C9.11054 10.8664 8.9618 9.60856 9.23521 8.40824C9.50856 7.20784 10.1874 6.13846 11.1572 5.38022C12.1271 4.62198 13.3287 4.22123 14.5595 4.24556C15.7904 4.26983 16.9752 4.71772 17.9144 5.51363C18.8536 6.3096 19.4897 7.40499 19.7154 8.61518C19.9412 9.82538 19.7429 11.0764 19.154 12.1574C18.565 13.2385 17.6214 14.0835 16.4822 14.55C15.3429 15.0166 14.0777 15.076 12.8996 14.7186C12.4955 14.5959 12.0686 14.8241 11.9459 15.2282C11.8233 15.6323 12.0514 16.0593 12.4556 16.1819C13.9702 16.6416 15.5969 16.565 17.0617 15.9652C18.5264 15.3654 19.7397 14.279 20.4969 12.8891C21.2541 11.4991 21.509 9.89065 21.2187 8.3347C21.0644 7.50759 20.7611 6.72215 20.3293 6.01419L22.4173 4.2621L22.4729 6.46987C22.4835 6.89203 22.8344 7.22565 23.2565 7.21505C23.6787 7.20438 24.0123 6.85356 24.0016 6.43141L23.9029 2.50721Z" fill="#333333"/>
<path d="M2.31442 6.51461C2.95635 5.46416 3.94073 4.66705 5.10172 4.2577C6.26278 3.84828 7.52938 3.85168 8.68824 4.26716C9.08572 4.4097 9.52354 4.20303 9.66608 3.80554C9.80863 3.40805 9.60195 2.97023 9.2044 2.82769C7.71452 2.29343 6.08597 2.28911 4.59323 2.81549C3.10049 3.34178 1.83481 4.36664 1.00951 5.7173C0.184212 7.0679 -0.150272 8.66172 0.0624323 10.2302C0.275136 11.7987 1.02203 13.2458 2.17722 14.3279C3.2621 15.344 4.64483 15.9798 6.11697 16.1444V17.7152L3.82299 17.7154C3.40071 17.7154 3.05842 18.0578 3.05842 18.4801C3.05849 18.9024 3.40084 19.2446 3.82313 19.2446L6.11697 19.2444V21.5386C6.11697 21.9608 6.45932 22.3032 6.88161 22.3032C7.3039 22.3032 7.64625 21.9608 7.64625 21.5386V19.2443L9.9401 19.2441C10.3624 19.2441 10.7047 18.9018 10.7047 18.4795C10.7046 18.0572 10.3623 17.7148 9.93997 17.7149L7.64625 17.7151V16.1444C8.79137 16.0163 9.89303 15.6019 10.8457 14.9306C12.1395 14.0188 13.0795 12.6889 13.5072 11.1649C13.9349 9.64096 13.8242 8.01622 13.1937 6.56435C13.0255 6.17699 12.5752 5.99938 12.1878 6.16759C11.8005 6.3358 11.6228 6.78616 11.7911 7.17351C12.2814 8.3027 12.3675 9.56643 12.0349 10.7517C11.7022 11.937 10.9712 12.9714 9.96483 13.6805C9.06919 14.3117 8.00427 14.6509 6.91501 14.6577C6.90395 14.6572 6.89281 14.6569 6.88161 14.6569C6.87035 14.6569 6.85921 14.6572 6.84808 14.6577C6.73567 14.6569 6.62307 14.6527 6.51039 14.6449C5.28227 14.5595 4.12114 14.0534 3.22263 13.2118C2.32415 12.3702 1.74324 11.2446 1.57781 10.0247C1.41237 8.80479 1.67252 7.56513 2.31442 6.51461Z" fill="#333333"/>
</g>
<defs>
<clipPath id="clip0_1961_10632">
<rect width="24" height="24" fill="white"/>
</clipPath>
</defs>
</svg>
