<svg width="24" height="24" viewBox="0 0 24 24" fill="none" xmlns="http://www.w3.org/2000/svg">
<g clip-path="url(#clip0_881_2623)">
<path d="M20.4546 14.8605L21.3546 16.4193C21.7274 17.065 21.5062 17.8907 20.8605 18.2634L18.9119 19.3884L15.7942 21.1884C11.4896 23.6737 5.98526 22.1988 3.5 17.8942C1.01472 13.5896 2.48959 8.08526 6.79423 5.59998L9.91192 3.79998L11.8605 2.67498C12.5062 2.3022 13.3318 2.52341 13.7046 3.16911L14.6046 4.72796C14.9774 5.37365 14.7562 6.19931 14.1105 6.57209L12.1619 7.69709L9.04423 9.49709C6.89193 10.7397 6.15448 13.4919 7.39711 15.6442C8.63974 17.7965 11.3919 18.5339 13.5442 17.2913L16.6619 15.4913L18.6105 14.3663C19.2562 13.9935 20.0818 14.2148 20.4546 14.8605Z" stroke="#323232" stroke-width="2" stroke-linecap="round" stroke-linejoin="round"/>
<path opacity="0.5" d="M10.1283 3.95409L12.1662 7.54593M16.9273 15.5497L19.1936 19.415" stroke="#323232" stroke-width="2" stroke-linecap="round" stroke-linejoin="round"/>
</g>
<defs>
<clipPath id="clip0_881_2623">
<rect width="24" height="24" fill="white"/>
</clipPath>
</defs>
</svg>
