<svg width="36" height="36" viewBox="0 0 36 36" fill="none" xmlns="http://www.w3.org/2000/svg">
<path d="M18 9.72C18 9.46992 18 9.34488 18.0541 9.24478C18.0992 9.16117 18.1815 9.08522 18.2685 9.04688C18.3726 9.00099 18.4881 9.01025 18.7192 9.02878C20.0482 9.13533 21.3402 9.53615 22.5 10.2058C23.8682 10.9957 25.0043 12.1318 25.7942 13.5C26.5841 14.8682 27 16.4202 27 18C27 19.5798 26.5841 21.1318 25.7942 22.5C25.0043 23.8682 23.8682 25.0043 22.5 25.7942C21.1318 26.5841 19.5798 27 18 27C16.4202 27 14.8682 26.5841 13.5 25.7942C12.3402 25.1246 11.3471 24.2062 10.5903 23.1085C10.4587 22.9176 10.3929 22.8222 10.3806 22.7091C10.3703 22.6146 10.395 22.5053 10.4448 22.4244C10.5044 22.3276 10.6127 22.265 10.8293 22.14L17.64 18.2078C17.7711 18.1321 17.8367 18.0943 17.8844 18.0413C17.9266 17.9944 17.9585 17.9392 17.978 17.8793C18 17.8115 18 17.7357 18 17.5843L18 9.72Z" fill="white"/>
<circle cx="18" cy="18" r="13" stroke="white" stroke-width="2"/>
</svg>
