<svg width="20" height="21" viewBox="0 0 20 21" fill="none" xmlns="http://www.w3.org/2000/svg">
<g opacity="0.5">
<path d="M2.8146 4.73542C2.5 5.18365 2.5 6.51597 2.5 9.18066V10.4929C2.5 15.1912 6.03247 17.4713 8.2488 18.4395L8.24944 18.4398C8.32433 18.4725 8.3948 18.5033 8.46201 18.5319C8.93381 18.7329 9.25686 18.8334 10 18.8334C10.8493 18.8334 11.1499 18.7021 11.751 18.4396L11.7512 18.4395C13.9675 17.4713 17.5 15.1912 17.5 10.4929V9.18066C17.5 6.51597 17.5 5.18365 17.1854 4.73542C16.8708 4.2872 15.6181 3.85839 13.1127 3.00077L13.1126 3.00074L12.6353 2.83735L12.635 2.83727C11.3291 2.39025 10.6761 2.16675 10 2.16675C9.32387 2.16675 8.6709 2.39026 7.36496 2.83728L7.36477 2.83735L6.88742 3.00074L6.88736 3.00076C4.38191 3.85839 3.12919 4.2872 2.8146 4.73542Z" fill="#4A88D9"/>
<path d="M2.5 9.18066C2.5 6.51597 2.5 5.18365 2.8146 4.73542C3.12919 4.2872 4.38193 3.85838 6.88742 3.00074L7.36477 2.83735C8.67083 2.39028 9.32383 2.16675 10 2.16675C10.6762 2.16675 11.3292 2.39028 12.6353 2.83735L13.1126 3.00074C15.6181 3.85838 16.8708 4.2872 17.1854 4.73542C17.5 5.18365 17.5 6.51597 17.5 9.18066M2.5 9.18066C2.5 9.58308 2.5 10.0196 2.5 10.4929M2.5 9.18066V10.4929M17.5 9.18066C17.5 9.58308 17.5 10.0196 17.5 10.4929M17.5 9.18066V10.4929M17.5 10.4929C17.5 15.1912 13.9675 17.4713 11.7512 18.4395C11.15 18.7021 10.8494 18.8334 10 18.8334C9.25686 18.8334 8.93381 18.7329 8.46201 18.5319C8.39461 18.5032 8.32393 18.4723 8.2488 18.4395C6.03247 17.4713 2.5 15.1912 2.5 10.4929" stroke="#4A88D9"/>
</g>
<path d="M7.91602 10.8333L9.10652 12.1666L12.0827 8.83325" stroke="#052DA6" stroke-width="2" stroke-linecap="round" stroke-linejoin="round"/>
</svg>
