<svg width="20" height="21" viewBox="0 0 20 21" fill="none" xmlns="http://www.w3.org/2000/svg">
<g clip-path="url(#clip0_2027_9116)">
<path opacity="0.5" d="M2.5 9.18066C2.5 6.51597 2.5 5.18365 2.8146 4.73542C3.12919 4.2872 4.38193 3.85838 6.88742 3.00074L7.36477 2.83735C8.67083 2.39028 9.32383 2.16675 10 2.16675C10.6762 2.16675 11.3292 2.39028 12.6353 2.83735L13.1126 3.00074C15.6181 3.85838 16.8708 4.2872 17.1854 4.73542C17.5 5.18365 17.5 6.51597 17.5 9.18066M2.5 9.18066C2.5 9.58308 2.5 10.0196 2.5 10.4929M2.5 9.18066V10.4929M17.5 9.18066C17.5 9.58308 17.5 10.0196 17.5 10.4929M17.5 9.18066V10.4929M17.5 10.4929C17.5 15.1912 13.9675 17.4713 11.7512 18.4395C11.15 18.7021 10.8494 18.8334 10 18.8334C9.25686 18.8334 8.93381 18.7329 8.46201 18.5319C8.39461 18.5032 8.32393 18.4723 8.2488 18.4395C6.03247 17.4713 2.5 15.1912 2.5 10.4929" stroke="#979798" stroke-width="2"/>
<path d="M7.91602 10.8333L9.10652 12.1666L12.0827 8.83325" stroke="#646465" stroke-width="2" stroke-linecap="round" stroke-linejoin="round"/>
<path d="M15.5 0.5C15.2239 0.5 15 0.723858 15 1V2.9H15.0042L15 2.904L16.6667 4.5L15 6.1L15.0042 6.104H15V8C15 8.27614 15.2239 8.5 15.5 8.5H19.5C19.7761 8.5 20 8.27614 20 8V6.104H19.9958L20 6.1L18.3333 4.5L20 2.904L19.9958 2.9H20V1C20 0.723857 19.7761 0.5 19.5 0.5H15.5ZM19.1667 6.3V7.7H15.8333V6.3L17.5 4.7L19.1667 6.3ZM17.5 4.3L15.8333 2.7V1.3H19.1667V2.7L17.5 4.3Z" fill="#052DA6"/>
<path d="M17.5 4.3L15.8333 2.7V1.3H19.1667V2.7L17.5 4.3Z" fill="#052DA6"/>
<path d="M19.1667 6.3V7.7H15.8333V6.3L17.5 4.7L19.1667 6.3Z" fill="#052DA6"/>
</g>
<defs>
<clipPath id="clip0_2027_9116">
<rect width="20" height="20" fill="white" transform="translate(0 0.5)"/>
</clipPath>
</defs>
</svg>
