<svg width="20" height="21" viewBox="0 0 20 21" fill="none" xmlns="http://www.w3.org/2000/svg">
<path opacity="0.5" d="M2.5 9.18042C2.5 6.51573 2.5 5.1834 2.8146 4.73518C3.12919 4.28695 4.38193 3.85814 6.88742 3.0005L7.36477 2.8371C8.67083 2.39004 9.32383 2.1665 10 2.1665C10.6762 2.1665 11.3292 2.39004 12.6353 2.8371L13.1126 3.0005C15.6181 3.85814 16.8708 4.28695 17.1854 4.73518C17.5 5.1834 17.5 6.51573 17.5 9.18042M2.5 9.18042C2.5 9.58284 2.5 10.0193 2.5 10.4927M2.5 9.18042V10.4927M17.5 9.18042C17.5 9.58284 17.5 10.0193 17.5 10.4927M17.5 9.18042V10.4927M17.5 10.4927C17.5 15.191 13.9675 17.4711 11.7512 18.4393C11.15 18.7018 10.8494 18.8332 10 18.8332C9.25686 18.8332 8.93381 18.7326 8.46201 18.5317C8.39461 18.5029 8.32393 18.4721 8.2488 18.4393C6.03247 17.4711 2.5 15.191 2.5 10.4927" stroke="#FF1E00" stroke-width="2"/>
<path d="M12 8.50002L8.00002 12.5M8 8.5L12 12.5" stroke="#FF1E00" stroke-width="2" stroke-linecap="round"/>
</svg>
