<svg width="25" height="24" viewBox="0 0 25 24" fill="none" xmlns="http://www.w3.org/2000/svg">
<path d="M12.4996 15.4001C14.3774 15.4001 15.8996 13.8779 15.8996 12.0001C15.8996 10.1223 14.3774 8.6001 12.4996 8.6001C10.6218 8.6001 9.09961 10.1223 9.09961 12.0001C9.09961 13.8779 10.6218 15.4001 12.4996 15.4001Z" stroke="#222222" stroke-width="2"/>
<path d="M20.6878 10.9343C21.076 11.4056 21.2701 11.6412 21.2701 12C21.2701 12.3588 21.076 12.5944 20.6878 13.0657C19.2677 14.7899 16.1355 18 12.4998 18C8.86403 18 5.73182 14.7899 4.31173 13.0657C3.92357 12.5944 3.72949 12.3588 3.72949 12C3.72949 11.6412 3.92357 11.4056 4.31173 10.9343C5.73182 9.21014 8.86403 6 12.4998 6C16.1355 6 19.2677 9.21014 20.6878 10.9343Z" stroke="#2A4157" stroke-opacity="0.24" stroke-width="2"/>
</svg>
