<svg width="398" height="144" viewBox="0 0 398 144" fill="none" xmlns="http://www.w3.org/2000/svg">
<g opacity="0.6">
<path d="M68.4748 84.2302C93.9491 77.8888 101.451 70.7874 102.69 71.416C103.996 72.0774 101.209 76.6493 101.209 76.6493C102.304 77.1087 113.642 69.1415 114.627 70.9061C115.3 72.1128 108.679 76.6934 108.679 76.6934C108.679 76.6934 117.776 72.1077 118.686 73.3548C119.596 74.6019 110.863 80.8159 110.863 80.8159C110.863 80.8159 120.398 75.1472 121.302 76.8588C122.205 78.5704 111.957 85.5417 111.957 85.5417C111.957 85.5417 118.717 81.2968 119.006 83.305C119.201 84.6606 100.351 97.3827 83.9295 105.375C35.0837 129.149 0 123.836 0 123.836L9.88959 87.2873C9.88959 87.2873 35.7274 92.383 68.4748 84.2302Z" fill="#E4B8CD"/>
<path d="M114.308 106.404C115.214 111.855 120.368 115.538 125.818 114.628L184.606 104.82C190.051 103.912 193.73 98.7631 192.825 93.3176L190.608 79.9726C189.796 75.0835 184.664 72.047 181.381 75.7598C179.145 78.2886 175.968 80.0119 172.269 80.3241C165.816 80.8685 159.737 76.6676 157.976 70.4222C155.716 62.3991 160.927 54.4194 168.901 53.0883C172.185 52.5405 175.387 53.2161 178.05 54.7805C182.219 57.2294 186.066 52.6389 185.274 47.8697L183.03 34.3673C182.124 28.9165 176.97 25.2333 171.52 26.1427L158.1 28.3818C153.323 29.1787 148.725 25.3284 151.169 21.1481C152.73 18.4793 153.404 15.2717 152.857 11.9795C151.53 3.98868 143.566 -1.23449 135.56 1.0321C129.329 2.79538 125.136 8.88853 125.679 15.355C125.99 19.0627 127.71 22.2459 130.233 24.4858C133.945 27.7813 130.899 32.9199 126.004 33.7367L112.732 35.9509C107.287 36.8593 103.608 42.008 104.513 47.4536L114.308 106.404Z" fill="url(#paint0_linear_1900_38585)"/>
<path d="M382.099 112.382C382.099 112.382 365.328 112.549 330.465 100.149C305.823 91.3843 283.234 73.9883 283.812 71.8526C284.39 69.7182 291.144 75.2026 291.144 75.2026C291.144 75.2026 280.973 66.3064 282.177 64.5733C283.38 62.8403 292.952 70.2332 292.952 70.2332C292.952 70.2332 284.32 62.3581 285.469 61.1274C286.618 59.8967 295.857 66.0602 295.857 66.0602C295.857 66.0602 289.296 60.23 290.185 59.0132C291.484 57.2334 302.704 67.3502 303.948 66.9981C303.948 66.9981 301.536 61.6828 303.037 61.14C304.462 60.6238 307.691 68.4206 312.936 69.4758C356.227 78.1915 388 75.5042 388 75.5042L382.099 112.382Z" fill="#B0849F"/>
<path d="M292.472 115.007C290.877 120.293 285.3 123.286 280.013 121.694L267.178 117.827C262.45 116.402 257.475 119.65 259.344 124.221C261.546 129.606 260.35 136.451 253.905 141.433C253.628 141.646 253.118 141.92 252.788 142.033C239.828 146.449 230.55 135.539 233.606 125.412C234.564 122.235 236.579 119.67 239.149 117.977C243.172 115.327 240.763 109.868 236.15 108.478L223.166 104.566C217.877 102.972 214.881 97.3914 216.477 92.1026L220.34 79.3007C221.766 74.5714 218.517 69.5939 213.944 71.4609C208.555 73.6614 201.706 72.4658 196.72 66.0255C196.506 65.7504 196.232 65.2399 196.119 64.9099C191.7 51.9597 202.618 42.6875 212.752 45.741C215.931 46.699 218.498 48.7122 220.192 51.2803C222.847 55.303 228.308 52.8916 229.7 48.2776L233.613 35.3076C235.208 30.0215 240.785 27.0282 246.071 28.6209L258.906 32.4878C263.635 33.9123 268.609 30.6649 266.741 26.0936C264.539 20.7084 265.735 13.8639 272.18 8.88184C272.455 8.66831 272.966 8.39425 273.296 8.2812C286.257 3.86551 295.535 14.7751 292.479 24.9026C291.52 28.0793 289.506 30.644 286.936 32.3374C282.913 34.9878 285.322 40.4468 289.934 41.8363L302.918 45.7477C308.208 47.3412 311.203 52.9221 309.607 58.2111L292.472 115.007Z" fill="url(#paint1_linear_1900_38585)"/>
<path d="M395.221 136.398C395.221 136.398 375.157 137.95 331.998 128.944C301.491 122.579 272.44 107.394 272.883 105.205C273.327 103.017 282.047 107.84 282.047 107.84C282.047 107.84 268.844 99.9406 270.082 98.0941C271.32 96.2476 283.632 102.703 283.632 102.703C283.632 102.703 272.389 95.6752 273.621 94.334C274.853 92.9941 286.625 98.2524 286.625 98.2524C286.625 98.2524 278.098 93.065 279.017 91.7643C280.365 89.8608 294.967 98.878 296.415 98.4056C296.415 98.4056 292.911 93.3322 294.644 92.6433C296.289 91.9898 301.059 99.4631 307.458 100.009C360.276 104.519 398 98.9983 398 98.9983L395.221 136.398Z" fill="#BA91AA"/>
</g>
<defs>
<linearGradient id="paint0_linear_1900_38585" x1="98.3601" y1="14.3606" x2="195.636" y2="87.5907" gradientUnits="userSpaceOnUse">
<stop stop-color="#4A88D9"/>
<stop offset="1" stop-color="#052DA6"/>
</linearGradient>
<linearGradient id="paint1_linear_1900_38585" x1="189.323" y1="23.5266" x2="305.805" y2="119.365" gradientUnits="userSpaceOnUse">
<stop stop-color="#4A88D9"/>
<stop offset="1" stop-color="#052DA6"/>
</linearGradient>
</defs>
</svg>
